<svg width="97" height="56" viewBox="0 0 97 56" fill="none" xmlns="http://www.w3.org/2000/svg">
<path fill-rule="evenodd" clip-rule="evenodd" d="M41.7372 12C46.1482 12 49.7241 15.5844 49.7241 20.0057V21.8959C49.7241 25.5601 47.6675 28.743 44.6485 30.3482V30.4182L52.445 43.9794C45.3617 44.2442 44.0048 41.9019 42.9828 40.1371C42.8913 39.979 42.8024 39.8255 42.7123 39.679C42.0611 38.6193 40.3751 35.6469 39.1744 33.5306C38.894 33.0362 38.64 32.5883 38.4319 32.2227H35.6288V43.9837H28.9423V12H41.7372ZM35.6288 26.3968H39.0192C41.1021 26.3968 42.7909 24.7043 42.791 22.6165V21.223C42.791 19.3808 41.3011 17.8873 39.4632 17.8873H35.6288V26.3968Z" fill="#E3E1D9"></path>
<path fill-rule="evenodd" clip-rule="evenodd" d="M26.3086 43.9837H19.2447L17.4189 36.9647H8.40913L6.68655 43.9837H0L8.67538 12H17.6627L26.3086 43.9837ZM9.63221 31.9822H16.1228L12.783 19.1424L9.63221 31.9822Z" fill="#E3E1D9"></path>
<path d="M72.9437 13.4163L72.3445 14.9205C71.8611 16.1337 70.6888 16.9297 69.3855 16.9297H62.1053V24.7442H72.0276V29.7268H62.1053V39.0011H73.2184V43.9837H55.4187V12H73.3751L72.9437 13.4163Z" fill="#E3E1D9"></path>
<path fill-rule="evenodd" clip-rule="evenodd" d="M89.4571 12C93.6228 12.0002 96.9999 15.385 97 19.5605V22.9276C97 27.3489 93.4242 30.9332 89.0131 30.9333H83.1998V43.9837H76.5125V12H89.4571ZM83.1998 26.0036H86.2951C88.3784 26.0036 90.0669 24.3105 90.0669 22.2226V20.2655C90.0668 18.4234 88.577 16.9298 86.739 16.9297H83.1998V26.0036Z" fill="#E3E1D9"></path>
</svg>