<svg width="176" height="56" viewBox="0 0 176 56" fill="none" xmlns="http://www.w3.org/2000/svg">
<path d="M24.3241 29.8556H29.5283V21.0662H35.4771V44H29.5283V34.0484H24.3241V44H18.3585V23.5057C18.3585 22.3365 17.4163 21.9674 17.4163 21.9674V21.0662H24.3241V29.8556Z" fill="#E3E1D9"></path>
<path d="M54.7466 21.0662C55.3986 21.0666 55.9354 21.6225 55.9354 22.3021V25.2575H47.4405V29.8556H54.215V34.0469H47.4405V38.8722C47.4408 39.3841 47.8383 39.8055 48.3321 39.8057H55.9354V42.7656C55.9353 43.4434 55.3986 43.9996 54.7466 44H43.7238C42.5806 43.9991 41.4886 43.1401 41.4886 41.9489V21.0662H54.7466Z" fill="#E3E1D9"></path>
<path d="M67.3075 44H62.5475C61.8952 44 61.3572 43.4443 61.3572 42.7672V21.0662H67.3075V44Z" fill="#E3E1D9"></path>
<path d="M76.2544 21.0662C77.7264 21.0662 78.799 21.6961 79.5696 22.953C80.2237 24.0199 86.2997 33.9317 86.2997 33.9317C86.2997 33.9317 86.0806 33.2562 86.0806 31.4477V21.0662H90.5296V42.7672C90.5296 43.4443 89.9931 44 89.3407 44H85.69L77.6546 30.8566C77.6546 30.8566 77.8216 31.9467 77.8216 33.3161V44H73.3727V21.0662H76.2544Z" fill="#E3E1D9"></path>
<path d="M109.798 21.0662C110.452 21.0662 110.989 21.6222 110.989 22.3021V25.2575H102.491V29.8556H109.271V34.0469H102.491V38.8722C102.492 39.384 102.891 39.8053 103.385 39.8057H110.989V42.7656C110.989 43.4437 110.452 44 109.798 44H98.7779C97.6334 43.9992 96.5427 43.0917 96.5427 41.9489V21.0662H109.798Z" fill="#E3E1D9"></path>
<path d="M121.975 29.5593C122.031 29.4924 127.222 23.2913 128.038 22.3159C128.856 21.3363 129.65 21.0662 130.683 21.0662H134.975L127.103 30.4666L135.454 44H130.565C128.78 43.9998 128.003 43.3729 127.218 42.1024C126.438 40.8357 121.985 33.6152 121.975 33.6001V44H117.214C116.562 44 116.026 43.4452 116.024 42.7672V21.0662H121.975V29.5593Z" fill="#E3E1D9"></path>
<path d="M151.675 21.0662C152.328 21.0662 152.864 21.6222 152.864 22.3021V25.2575H144.367V29.8556H151.145V34.0469H144.367V38.8722C144.368 39.3841 144.768 39.8055 145.259 39.8057H152.864V42.7656C152.864 43.4437 152.328 44 151.675 44H140.652C139.508 43.9992 138.417 43.0917 138.417 41.9489V21.0662H151.675Z" fill="#E3E1D9"></path>
<path d="M160.79 21.0662C162.262 21.0662 163.334 21.6962 164.106 22.953C164.759 24.0162 170.791 33.8635 170.833 33.9317C170.828 33.9161 170.618 33.2351 170.618 31.4477V21.0662H176V21.9674C175.986 21.9732 175.056 22.3663 175.056 23.5057L175.062 42.7672C175.062 43.4443 174.529 44 173.877 44H170.226L162.189 30.8566C162.189 30.8566 162.356 31.9467 162.356 33.3161V44H157.907V21.0662H160.79Z" fill="#E3E1D9"></path>
<path d="M13.8498 1.27967C13.9605 0.910708 14.4525 0.902866 14.5652 1.27967C14.7232 1.80513 17.7144 11.544 17.7457 11.6458C17.7457 11.6458 27.5149 11.6494 28.0377 11.6458C28.4028 11.6437 28.5579 12.1307 28.2567 12.3643L23.29 16.1871H17.4148L15.5993 10.2717L13.7854 16.1871H7.90715L12.6625 19.8441L10.8455 25.7626C10.8455 25.7626 6.18488 29.3513 5.88184 29.5838C5.57974 29.8175 5.187 29.5145 5.30275 29.1463C5.46669 28.6208 8.48472 18.774 8.48472 18.774L0.158283 12.3643C-0.141385 12.1305 0.0136878 11.6434 0.378891 11.6458C0.89895 11.6494 10.5719 11.6458 10.6709 11.6458C10.6942 11.5698 13.691 1.80961 13.8498 1.27967Z" fill="#E3E1D9"></path>
</svg>