<?xml version="1.0"?>

<svg version="1.1" id="Layer_1" xmlns="http://www.w3.org/2000/svg" xmlns:xlink="http://www.w3.org/1999/xlink" x="0px" y="0px" viewBox="0 0 143.5 80" style="enable-background:new 0 0 143.5 80;" xml:space="preserve">

<style>.st0{fill:#2D2A1E;}</style>
<g id="Group_367" transform="translate(1792.222 432.875)">
	<path id="Path_1132" class="st0" d="M-1718.4-429.8c0.3-0.4,2.2-0.9,2.4-0.2c0.2,0.5-0.5,0.9-0.7,1.3c-0.6,1.2-0.6,2.4-1,3.7&#xA;&#x9;&#x9;c-0.3,1.1-0.6,1.7-0.6,3c0,1,0.2,2.3,0,3.2c-0.2,1-0.7,1.2-0.7,2.4c0,1.2,0.4,1.5,0.6,2.6c0.4,1.7-0.6,3.8,0,5.4&#xA;&#x9;&#x9;c0.7,1.9,2-1.5,3-2.3c0.9-0.8,0.9-1.1,1.5-2c0.4-0.5,1.4-1.7,2.1-1.7c1.7,0.1,0,2.2-0.4,2.8c-0.5,0.8-6.9,7-4.1,8&#xA;&#x9;&#x9;c1.6,0.6,4.8-5.4,5.7-6.5c1.4-1.7,2.8-3.8,4.1-5.7c1.2-1.6,2.3-3.3,3.8-4.8c1.3-1.3,1.9-2.9,2.8-4.5c-1.3-0.9-1.3,1.1-2.1,1.2&#xA;&#x9;&#x9;c-1.9,0.3,0.2-2.7,0.6-3c1-1,4.6-4.9,6.1-4.5c3,0.8-1.3,5.5-2.1,6.7c-0.6,0.8-1.1,1.9-1.6,2.7c-0.8,1.1-1.6,1.5-2.2,2.8&#xA;&#x9;&#x9;c-1.3,2.6-3.5,4.2-5.2,6.6c-1.5,2.1-2.9,4.2-4.4,6.3c-1.5,2.1-3.7,4-5,6.3c-0.3,0.6-3.4,5.4-3.5,5.3c0.5,0.4,6-2.1,6.4-2.2&#xA;&#x9;&#x9;c1.9-0.8,3.8-1.6,5.8-2.3c1.3-0.4,3.2-0.9,4.3-1.7c1.1-0.8,1.1-2.3,1.4-3.7c0.6-2.3,1.5-4.4,2.2-6.6c0.7-2,1.8-3.8,2.6-5.7&#xA;&#x9;&#x9;c0.8-2,0.8-3.8,2.1-5.6c0.6-0.9,1-1.7,1.4-2.7c0.3-0.7,0.9-2.4,1.9-2.3c1.7,0.1,0.6,1.8,0.4,2.5c-0.4,1.4-0.5,3.2-0.5,4.7&#xA;&#x9;&#x9;c0,3.3-0.1,6.6-0.1,9.9c0,1.2,0.3,2.1,0.5,3.3c0.2,1.3-0.5,2.1,0.8,2.3c0.6,0.1,2-0.9,2.7-1.1c0.4-0.1,1.2-0.2,1.7-0.2&#xA;&#x9;&#x9;c1-0.2,2-0.6,3-0.9c2.1-0.7,4.5-0.9,6.6-1.7c0.7-0.3,1.2-0.6,2-0.8c0.9-0.2,1.8-0.8,2.7-0.9c0.4-0.1,0.8,0.4,1.2,0.5&#xA;&#x9;&#x9;c0.7,0.1,1-0.1,1.6-0.2c1.5-0.3,2.1-0.8,3.5,0c1,0.6,1.6,1.3,0.5,2.3s-2.4,0.1-3.5-0.2c-2.2-0.6-5-0.1-7.1,0.7&#xA;&#x9;&#x9;c-4.1,1.7-8.4,2.2-12.6,3.7c-0.8,0.3-2,0.4-2.4,1.3c-0.4,0.8,0.4,2.3,0.6,3c0.5,1.8,1.4,3.5,1.6,5.3c0.2,1.7,0.9,3.1,1.7,4.5&#xA;&#x9;&#x9;c0.3,0.6,1.4,1.8,1.5,2.1c0.1,0.3-0.2,0.6,0,0.9c0.3,0.5,0.7,0.8,1,1.3c1.3,1.5,2.4,3.7,4.4,4.4c2.8,0.9,3-0.8,4.3-2.8&#xA;&#x9;&#x9;c0.4-0.6-0.2-0.7,0.6-0.9c0.6-0.1,0.7,0,1,0.4c0.1,0.3-0.3,1.8-0.5,2.1c-1.1,2.2-3.6,3.9-6.2,3.1c-3.6-1.1-5.3-5.1-6.8-8.1&#xA;&#x9;&#x9;c-0.6-1.1-1.1-2.1-1.7-3.1c-0.2-0.3-0.4,0-0.5-0.4c-0.2-0.4-0.1-0.7-0.1-1.2c-0.3-2.1-1.6-3.8-2-5.9c-0.1-0.8,0-3.2-0.5-3.8&#xA;&#x9;&#x9;c-0.7-0.8-0.8-0.2-1.8,0c-2,0.5-5,0.8-6.7,1.9c-1.5,0.9-1,1-1.4,2.6c-0.2,0.9-0.8,1.8-1,2.7c-0.4,1.4-0.7,2.4-1.2,3.7&#xA;&#x9;&#x9;c-0.4,0.9-0.4,1.9-0.8,2.7c-0.4,1-0.9,1.9-1.3,2.9s-0.6,2.3-0.9,3.4c-0.3,0.9-0.7,1.9-1.2,2.7c-0.7,1-0.7,1.9-1.3,3&#xA;&#x9;&#x9;c-0.2,0.3-0.5,0.8-0.6,1.1c-0.2,0.4-0.2,0.9-0.3,1.3c-0.3,0.8-1.6,3.1-2.6,2.9c-2.1-0.3-0.9-4.7-0.6-5.8c0.3-1-0.1-2.2,0.2-3.3&#xA;&#x9;&#x9;c0.3-1.2,0.9-1.7,0.9-3.2c0-1,0.1-2-1.4-1.5c-0.6,0.2-0.9,1.1-1.4,1.3c-0.3,0.1-0.7,0.2-1,0.2c-1.3,1.5-3.1,2.5-4.6,3.9&#xA;&#x9;&#x9;c-1.6,1.4-2.7,3.2-4.4,4.5c-1.5,1.2-2,2.5-3.1,4c-0.4,0.6-1,0.7-1.5,1.2c-0.2,0.4-0.3,0.8-0.5,1.1c-0.3,0.2-0.6,0.3-1,0.5&#xA;&#x9;&#x9;c-0.9,1-1.5,2.4-2.3,3.5c-0.7,0.9-1.6,1.6-2.4,2.4c-0.7,0.7-0.8,1.5-1.3,2.3c-0.9,1.2-2.1,2.1-3,3.4c-0.8,1.2-1.9,3.2-3.8,2.7&#xA;&#x9;&#x9;c-3.1-0.9,1.2-8.1,2-9.7c0.7-1.5,1.6-3,2.4-4.5c0.5-0.9,1.2-1.6,1.8-2.5c0.7-1,0.7-2.4,1.3-3.4c0.8-1.3,1.8-2.3,2.5-3.7&#xA;&#x9;&#x9;c0.3-0.6,0.9-1.3,1.3-1.9s0.8-1.4,1.2-1.9c0.9-1.3,1.9-2.6,2.9-3.8c0.4-0.5,2.9-3.6,2.7-4.1c-0.4-0.7-3.6,1.6-4.1,1.7&#xA;&#x9;&#x9;c-1.6,0.5-3.1,1.1-4.7,1.6c-2.5,0.8-5,2.4-6.4,4.5c-1.1,1.7-2.2,3-3.7,4.5s-3.1,3.6-4.7,4.8c-1.5,1.1-3.4,1.9-5.2,2.7&#xA;&#x9;&#x9;c-0.7,0.3-1.8,0.7-2.4,1.2c-0.5,0.4-0.6,1-1.3,1.3c-1.3,0.7-3.2,1-4.5,1.5c-1.7,0.6-3.5,1-5.1,1.7c-1.5,0.7-2.9,0.9-4.3,1.4&#xA;&#x9;&#x9;s-3,1.1-4.4,1.5c-3.4,0.8-7,1.9-10.7,1.8c-1.6,0-3.5-0.4-2.4-2.6c0.8-1.7,3-2.8,4.5-3.8c3.5-2.3,7.3-3.6,10.9-5.5&#xA;&#x9;&#x9;c1-0.5,1.9-1,3-1.4s2.2-0.9,3.3-1.4c0.2-0.1,1.8-1.2,1.8-1.2c1-0.2,2.9-0.7,3.5-1.6c0.7-1-0.1-1.9-0.2-2.8c-0.2-1.5,0.3-3,0-4.4&#xA;&#x9;&#x9;c-0.1-0.4-0.6-0.7-0.6-1c-0.1-0.7,0.4-2-0.1-2.6c-0.6-0.6-2.9-0.4-3.6-0.3c-1.5,0.3-2.5,0.8-4.2,0.7c-2.8-0.1-4.2-1.8-2.6-4.4&#xA;&#x9;&#x9;c1.3-2.1,3.3-3.1,5.1-4.7c0.7-0.6,5-4.7,4.7-5c-0.2-0.3-1.6,0.4-1.8,0.5c-1,0.2-0.1,0.1-1.2,0.1c-1-0.1-2.5-0.3-3.1-1.3&#xA;&#x9;&#x9;c-1.2-2.1,1.6-4,2.4-5.5c1.3-2.3-2.2-1.6-2.7-3.8c-0.3-1.6,1-1.7,1.9-2.4c0.3-0.2,0.7-0.8,1-0.9c0.6-0.3,1.1-0.2,1.7-0.5&#xA;&#x9;&#x9;c1.2-0.6,1.7-1.3,3-1.7c1-0.3,1.5-0.7,2.5-1.3c1.2-0.7,2.6-1.3,3.8-2.1c1.1-0.7,2.4-1.7,3.7-1.7c3.7-0.1-0.9,4.3-2.1,5&#xA;&#x9;&#x9;c-0.4,0.2-1,0.2-1.4,0.5c-0.7,0.5-1.2,1.5-1.8,2.1c-1,1.2-2,1.9-3.3,2.6c-1.2,0.7-1.1,1.4-1.9,2.5c-0.7,0.9-1.9,2-2.8,2.7&#xA;&#x9;&#x9;c-0.8,0.7-1.1,0.9-1.5,1.9c-0.7,2.1-0.2,2,1.6,1.6c0.7-0.2,1.8-0.2,2.2-0.9c0.2-0.4-0.3-0.9-0.2-1.2c0.1-0.7,0-1.9,1.1-1.4&#xA;&#x9;&#x9;c0.6,0.3,0.3,2,0.9,2.4c1,0.6,1.9-0.6,2.5,0.8c0.5,1.3-0.6,1.8-1.4,2.5c-1.5,1.2-1.5,2.1-1.4,3.9c0,0.5,0.3,2.2,0,2.6&#xA;&#x9;&#x9;c-0.6,0.8-1.3-0.2-1.5-0.9c-0.3-0.7,0.2-2.1-0.3-2.3c-0.5-0.2-2.8,1.6-3.1,1.9c-0.9,0.8-1.6,1.5-2.5,2.3c-0.5,0.4-3.2,2.4-2.9,3.3&#xA;&#x9;&#x9;c0.4,1,6,0.4,7.1,0.2c2.1-0.4,1.2-1.2,2.4-2.5c1-1,0.5-0.5,0.8,0.8c0.4,1.5,0.9,0.8,2.2,0.6c1.3-0.2,2.1-0.3,3.3-0.7&#xA;&#x9;&#x9;c0.9-0.4,1.9-0.4,2.8-0.7c1.3-0.3,2.4-1,3.7-1.5c4-1.5,8.1-2.5,11.5,0.5c0.4,0.4,1.4,2.3,1.4,2.7c0,0.9-0.9,1.2-0.7,2.4&#xA;&#x9;&#x9;c0.2,1.5,0.3,1.3,1.5,0.8c1.1-0.4,2-1,3.1-1.4s2.1-1.3,3.2-1.7c0.9-0.3,1.9-0.1,2.8-0.6c0.8-0.4,1.5-1,2.3-1.3&#xA;&#x9;&#x9;c1.2-0.5,2.2-0.7,3.1-1.8c0.9-1.2,1.8-2.1,2.7-3.3c0.2-0.3,0.2-0.8,0.5-1.2c0.6-0.8,2-1.3,2.4-2.2c0.6-1.5-0.5-2.4-1.8-1.8&#xA;&#x9;&#x9;c-1.2,0.5-1.9,2.2-2.9,2.7c-1.9,0.9-4.7-1.9-5-3.8c-0.6-3.8,3.7-2.2,5.5-1.8c1.5,0.4,1.8,0.6,2.2-1.3c0.3-1.6-0.7-2.2-0.7-3.8&#xA;&#x9;&#x9;c-0.1-3.9-0.2-8,0-11.9c0.1-1.8,0.4-3,0.9-4.7C-1719.3-427.5-1719-429-1718.4-429.8z M-1733.8-375.3c0.1,0.7-0.9,1.3-1.2,1.9&#xA;&#x9;&#x9;c-0.4,0.7-0.4,1.3-0.9,2.1c-1,1.5-1.5,3.1-2.4,4.6c-0.5,0.9-6,9.2-4.6,9.6c0.8,0.3,4.2-4.1,4.6-4.7c1.1-1.8,2.8-3.1,3.9-4.8&#xA;&#x9;&#x9;c2.1-3.2,4.9-6.2,7.8-9c1.8-1.8,3.5-3.8,5.4-5.4c0.9-0.7,1.9-1.2,2.7-2c1-0.9,1.4-1.5,2.5-2c1.2-0.5,4.8-2.2,5.3,0.3&#xA;&#x9;&#x9;c0.2,0.8-0.7,2.3-0.7,3.3c-0.1,1.2-0.5,1.5-0.7,2.6c-0.1,0.7-0.1,2.1,0.8,1.4c0.3-0.2,0.6-1.4,0.8-1.8c0.8-1.6,1.5-3.3,2.3-4.9&#xA;&#x9;&#x9;c0.9-1.8,1.1-3.7,1.8-5.5c0.7-1.8,1-3.5,1.6-5.2c0.1-0.4,0.7-1.7,0.7-2.1c0.1-1.7-1.2-1-2.3-0.6c-1.6,0.5-3.1,1.1-4.7,1.6&#xA;&#x9;&#x9;c-1.8,0.6-3.5,1.1-5.3,1.7c-0.8,0.3-1.6,1.1-2.4,1.4s-1.6,0.4-2.4,0.8c-3.2,1.9-5.7,5.7-7.7,8.9c-0.5,0.8-0.6,1.7-1.1,2.5&#xA;&#x9;&#x9;c-0.6,0.8-1.2,1.4-1.7,2.2C-1732.1-377.6-1733.6-376.3-1733.8-375.3L-1733.8-375.3z M-1762-379.6c-0.2,1,0.4,2.2,1.3,2.3&#xA;&#x9;&#x9;c0.5,0,1.6-0.7,2.1-0.9c0.3-0.2,0.5-0.5,0.8-0.7c0.3,0,0.6,0,1,0c2.5-1.1,5.4-2,8-3.1c1.4-0.6,2.6-1.7,4-2.1c1-0.3,2.5-0.5,3.2-1.4&#xA;&#x9;&#x9;c1.4-1.8,0.6-5.1-1.1-6.4c-2.3-1.8-5.9-0.2-8.3,0.7c-2.3,0.9-4.8,1.6-7,2.2c-1.8,0.5-5.7,0-5.4,2.7c0.1,0.9,0.5,1.3,0.7,2&#xA;&#x9;&#x9;s-0.2,1.5,0,2.2C-1762.4-381.2-1761.9-380.8-1762-379.6z M-1758.4-371.9c0.3,1.5-1.3,2.6-2.5,1.6c-1-0.8-0.3-3-1.2-3.8&#xA;&#x9;&#x9;c-1.2-0.9-4.8,1.8-6,2.5c-2.7,1.5-5.8,2.5-8.6,3.8c-1.3,0.6-2.5,1.4-3.8,2.1c-1.3,0.6-2.7,1-4,1.7c-0.5,0.3-2.6,2.2-2.3,2.9&#xA;&#x9;&#x9;c0.3,0.8,3.5-0.4,4.3-0.5s1.2-0.7,1.9-0.9c0.7-0.2,1.5,0.1,2.3-0.1c1.2-0.3,2.5-0.7,3.6-1.1c2.6-0.9,5.4-1.7,8.1-2.4&#xA;&#x9;&#x9;c2.5-0.7,5-2,7.4-3.2c3.1-1.5,5.6-3,8.4-5.1c1.5-1.2,3-1.9,4.2-3.5c0.4-0.5,3.5-3.9,3-4.4c-0.3-0.3-4.2,1.7-4.8,1.9&#xA;&#x9;&#x9;c-2.2,0.7-4.4,1.7-6.4,2.7c-1.4,0.7-4.2,1.1-5.3,2.5c-0.7,0.9-0.4,1.6,0.5,2.1C-1758.9-372.6-1758.4-373.8-1758.4-371.9&#xA;&#x9;&#x9;L-1758.4-371.9z M-1693.4-416.3c-0.1-1.3,0.6-4.1-0.9-2.8c-1.3,1.2-1.9,4-2.3,5.5c-0.3,1.4-0.9,2.7-1.4,4.1c-0.5,1.5-1.6,3.1-2,4.6&#xA;&#x9;&#x9;c-0.1,0.4-0.5,2.3-0.4,2.4c0.2,0.9,0.7,0.7,1.7,0.4c1.5-0.4,3.1-1.3,4.4-2.1c2.5-1.6,0.7-3.6,0.7-6.1&#xA;&#x9;&#x9;C-1693.5-412.3-1693.4-414.3-1693.4-416.3z M-1767.6-410.2c0,0.2,0,0.5,0.1,0.7c0.4,0.2,4.8-2.9,2.8-3.8c-0.3-0.1-2.1,0.8-2.3,0.9&#xA;&#x9;&#x9;C-1767.7-411.8-1767.7-411.2-1767.6-410.2z M-1761.1-415.6c-1.1,0.1-3.3,2.7-1.3,2.2C-1761.9-413.6-1760.2-415.3-1761.1-415.6z&#xA;&#x9;&#x9; M-1723.9-402.6c0.3,1.1,1.8,1.1,1.1-0.1C-1723.2-403.3-1723.7-403.1-1723.9-402.6z"></path>
	<path id="Path_1133" class="st0" d="M-1670-394.1c-1.2-0.5-0.9,0.4-1-1.2c0-1.3,0.1-2.7,0.1-3.9c0-1.4-0.3-2.4,1.4-2.5&#xA;&#x9;&#x9;c1.5-0.1,3,1.3,3.7,2.5s0.8,1.7,2,2.5c0.7,0.5,1.4,1.1,1.9,1.8c0.4,0.5,0.4,1.1,0.9,1.7c0.6,0.8,0.9,0.8,1.6,1.2&#xA;&#x9;&#x9;c1.5,0.9,2.7,1.9,4.4,2.2c1,0.2,4.3-0.6,4.8,0.5c0.7,1.5-1.1,1.5-1.8,1.9c-0.9,0.6-1.3,2.4-2.6,1.7c-0.5-0.3-0.8-1-1.2-1.4&#xA;&#x9;&#x9;c-0.4-0.4-1.5-0.9-2-1.2c-1.2-0.8-2.5-1.3-3.6-2.3c-1.2-1.1-1.8-2.3-2.9-3.5c-0.9-1-2.4-3.3-3.6-3.8&#xA;&#x9;&#x9;C-1670.3-398.4-1668.1-394.6-1670-394.1z"></path>
	<path id="Path_1134" class="st0" d="M-1761.3-429.6c0,1-0.2,1.7-0.4,2.5c-0.1,0.3-0.1,1.5-0.3,1.8c-1,2-1.4-0.7-1.4-1.5&#xA;&#x9;&#x9;c0-1.1-0.6-4.6,0.5-5.1C-1761.1-433-1761.4-430.5-1761.3-429.6z"></path>
	<path id="Path_1135" class="st0" d="M-1762.7-420.1c-0.1,1.1-0.3,2.4-1.1,1.1C-1764.6-420.2-1762.9-423.3-1762.7-420.1z"></path>
</g>
</svg>
