<?xml version="1.0"?><svg width="146px" height="40px" viewBox="0 0 146 40" version="1.1" xmlns="http://www.w3.org/2000/svg" xmlns:xlink="http://www.w3.org/1999/xlink" xmlns:c2pa="http://c2pa.org/manifest"><metadata><c2pa:manifest>AAAWgmp1bWIAAAAeanVtZGMycGEAEQAQgAAAqgA4m3EDYzJwYQAAABZcanVtYgAAAEdqdW1kYzJtYQARABCAAACqADibcQN1cm46YzJwYTozNThiZGM3Yi1jOTg0LTRlYWYtODM2OC03ZTdjMmMzNTg3YjQAAAADl2p1bWIAAAApanVtZGMyYXMAEQAQgAAAqgA4m3EDYzJwYS5hc3NlcnRpb25zAAAAALxqdW1iAAAARGp1bWRjYm9yABEAEIAAAKoAOJtxE2MycGEuaW5ncmVkaWVudC52MwAAAAAYYzJzaKwKtWSDY4Gm1EDPJufqZiAAAABwY2JvcqNpZGM6Zm9ybWF0bWltYWdlL3N2Zyt4bWxqaW5zdGFuY2VJRHgseG1wOmlpZDoxYzVlMmE3YS0wNTc4LTRlNDItOTQwZi1iODljMjY1MTE1ZGZscmVsYXRpb25zaGlwaHBhcmVudE9mAAAB4mp1bWIAAABBanVtZGNib3IAEQAQgAAAqgA4m3ETYzJwYS5hY3Rpb25zLnYyAAAAABhjMnNo9p2Cr07EMLEgDYpO0inMmAAAAZljYm9yomdhY3Rpb25zgqJmYWN0aW9ua2MycGEub3BlbmVkanBhcmFtZXRlcnOha2luZ3JlZGllbnRzgaJjdXJseC1zZWxmI2p1bWJmPWMycGEuYXNzZXJ0aW9ucy9jMnBhLmluZ3JlZGllbnQudjNkaGFzaFggcpRrIY5MCEkl78z3NKYVp7Pf0fhngRtDo829pv+8SW6kZmFjdGlvbngdY29tLmFudGhyb3BpYy5jbGF1ZGUucHJvdmlkZWRqcGFyYW1ldGVyc6F4H2NvbS5hbnRocm9waWMub3JpZ2luLWNvbmZpZGVuY2VndW5rbm93bmtkZXNjcmlwdGlvbnhmQ2xhdWRlIHByb3ZpZGVkIHRoaXMgZmlsZSBhdCB0aGUgcmVxdWVzdCBvZiBhIHVzZXIgYW5kIG1heSBoYXZlIGNyZWF0ZWQgb3IgbW9kaWZpZWQgdGhlIGZpbGUgY29udGVudHMubXNvZnR3YXJlQWdlbnShZG5hbWVmQ2xhdWRlcmFsbEFjdGlvbnNJbmNsdWRlZPUAAADIanVtYgAAAEBqdW1kY2JvcgARABCAAACqADibcRNjMnBhLmhhc2guZGF0YQAAAAAYYzJzaIf8rn5AkOptAkLHzx4F28EAAACAY2JvcqVjYWxnZnNoYTI1NmNwYWRNAAAAAAAAAAAAAAAAAGRoYXNoWCCCS9sJ/euNhkpXLhRKGrMibOqeAQkG+2z7aZoz12Tf42RuYW1lbmp1bWJmIG1hbmlmZXN0amV4Y2x1c2lvbnOBomVzdGFydBjmZmxlbmd0aBkeBAAAAj5qdW1iAAAAJ2p1bWRjMmNsABEAEIAAAKoAOJtxA2MycGEuY2xhaW0udjIAAAACD2Nib3KlY2FsZ2ZzaGEyNTZpc2lnbmF0dXJleE1zZWxmI2p1bWJmPS9jMnBhL3VybjpjMnBhOjM1OGJkYzdiLWM5ODQtNGVhZi04MzY4LTdlN2MyYzM1ODdiNC9jMnBhLnNpZ25hdHVyZWppbnN0YW5jZUlEeCx4bXA6aWlkOmMzM2JkMjQ0LWU1NmYtNDI0NC05N2Q3LTFmMjUwMTBiOTExYXJjcmVhdGVkX2Fzc2VydGlvbnODomN1cmx4LXNlbGYjanVtYmY9YzJwYS5hc3NlcnRpb25zL2MycGEuaW5ncmVkaWVudC52M2RoYXNoWCBylGshjkwISSXvzPc0phWns9/R+GeBG0Ojzb2m/7xJbqJjdXJseCpzZWxmI2p1bWJmPWMycGEuYXNzZXJ0aW9ucy9jMnBhLmFjdGlvbnMudjJkaGFzaFggZKSrjhvOPaVnopgmYtB24hGmEEX0b04vu6Qe296EHH+iY3VybHgpc2VsZiNqdW1iZj1jMnBhLmFzc2VydGlvbnMvYzJwYS5oYXNoLmRhdGFkaGFzaFggURuf4XZcCIIykkdVMT3P61EmG+VGgcCzSfXnx78i/tB0Y2xhaW1fZ2VuZXJhdG9yX2luZm+jZG5hbWVvQW50aHJvcGljIEZpbGVzZ3ZlcnNpb25lMS4wLjBrc3BlY1ZlcnNpb25lMi40LjAAABA4anVtYgAAAChqdW1kYzJjcwARABCAAACqADibcQNjMnBhLnNpZ25hdHVyZQAAABAIY2JvctKEWQISogEmGCFZAgowggIGMIIBjaADAgECAhRA5aAK7sI50L64g/oGQgU9Z1UTADAKBggqhkjOPQQDAzBJMRcwFQYDVQQKEw5BbnRocm9waWMsIFBCQzEuMCwGA1UEAxMlQW50aHJvcGljIENvbnRlbnQgQ3JlZGVudGlhbHMgUm9vdCBDQTAeFw0yNjA4MDcxODQzNTZaFw0yODA4MDYxOTQzNTZaMEQxFzAVBgNVBAoTDkFudGhyb3BpYywgUEJDMSkwJwYDVQQDEyBBbnRocm9waWMgQ2xhdWRlIENvbnRlbnQgU2lnbmluZzBZMBMGByqGSM49AgEGCCqGSM49AwEHA0IABJh6CmvLUBgFFNU0vUKlOVtE6djd17L5SuwX0LemFisBM3dkd/3cyjxFA3Qo5S46fX0/ihY0VZ7mfb9KF703t5OjWDBWMA4GA1UdDwEB/wQEAwIHgDAVBgNVHSUEDjAMBgorBgEEAYPoXgIBMAwGA1UdEwEB/wQCMAAwHwYDVR0jBBgwFoAUzlHiBIFOZFsj+OPEz5o+nMHXXMIwCgYIKoZIzj0EAwMDZwAwZAIwMXMdFJ4BetLLVY7ORuE9noqbbAZOZn/aArXyTwFAZfKrPzxF2vPoJNf1+UCdg1XGAjBwX1zd9WGqYkqmL5SFqw1QySjr1zJfpJM9+1rdDwSPLMOPOjKuiXjoU/pUUeG9RwmhY3BhZFkNngAAAAAAAAAAAAAAAAAAAAAAAAAAAAAAAAAAAAAAAAAAAAAAAAAAAAAAAAAAAAAAAAAAAAAAAAAAAAAAAAAAAAAAAAAAAAAAAAAAAAAAAAAAAAAAAAAAAAAAAAAAAAAAAAAAAAAAAAAAAAAAAAAAAAAAAAAAAAAAAAAAAAAAAAAAAAAAAAAAAAAAAAAAAAAAAAAAAAAAAAAAAAAAAAAAAAAAAAAAAAAAAAAAAAAAAAAAAAAAAAAAAAAAAAAAAAAAAAAAAAAAAAAAAAAAAAAAAAAAAAAAAAAAAAAAAAAAAAAAAAAAAAAAAAAAAAAAAAAAAAAAAAAAAAAAAAAAAAAAAAAAAAAAAAAAAAAAAAAAAAAAAAAAAAAAAAAAAAAAAAAAAAAAAAAAAAAAAAAAAAAAAAAAAAAAAAAAAAAAAAAAAAAAAAAAAAAAAAAAAAAAAAAAAAAAAAAAAAAAAAAAAAAAAAAAAAAAAAAAAAAAAAAAAAAAAAAAAAAAAAAAAAAAAAAAAAAAAAAAAAAAAAAAAAAAAAAAAAAAAAAAAAAAAAAAAAAAAAAAAAAAAAAAAAAAAAAAAAAAAAAAAAAAAAAAAAAAAAAAAAAAAAAAAAAAAAAAAAAAAAAAAAAAAAAAAAAAAAAAAAAAAAAAAAAAAAAAAAAAAAAAAAAAAAAAAAAAAAAAAAAAAAAAAAAAAAAAAAAAAAAAAAAAAAAAAAAAAAAAAAAAAAAAAAAAAAAAAAAAAAAAAAAAAAAAAAAAAAAAAAAAAAAAAAAAAAAAAAAAAAAAAAAAAAAAAAAAAAAAAAAAAAAAAAAAAAAAAAAAAAAAAAAAAAAAAAAAAAAAAAAAAAAAAAAAAAAAAAAAAAAAAAAAAAAAAAAAAAAAAAAAAAAAAAAAAAAAAAAAAAAAAAAAAAAAAAAAAAAAAAAAAAAAAAAAAAAAAAAAAAAAAAAAAAAAAAAAAAAAAAAAAAAAAAAAAAAAAAAAAAAAAAAAAAAAAAAAAAAAAAAAAAAAAAAAAAAAAAAAAAAAAAAAAAAAAAAAAAAAAAAAAAAAAAAAAAAAAAAAAAAAAAAAAAAAAAAAAAAAAAAAAAAAAAAAAAAAAAAAAAAAAAAAAAAAAAAAAAAAAAAAAAAAAAAAAAAAAAAAAAAAAAAAAAAAAAAAAAAAAAAAAAAAAAAAAAAAAAAAAAAAAAAAAAAAAAAAAAAAAAAAAAAAAAAAAAAAAAAAAAAAAAAAAAAAAAAAAAAAAAAAAAAAAAAAAAAAAAAAAAAAAAAAAAAAAAAAAAAAAAAAAAAAAAAAAAAAAAAAAAAAAAAAAAAAAAAAAAAAAAAAAAAAAAAAAAAAAAAAAAAAAAAAAAAAAAAAAAAAAAAAAAAAAAAAAAAAAAAAAAAAAAAAAAAAAAAAAAAAAAAAAAAAAAAAAAAAAAAAAAAAAAAAAAAAAAAAAAAAAAAAAAAAAAAAAAAAAAAAAAAAAAAAAAAAAAAAAAAAAAAAAAAAAAAAAAAAAAAAAAAAAAAAAAAAAAAAAAAAAAAAAAAAAAAAAAAAAAAAAAAAAAAAAAAAAAAAAAAAAAAAAAAAAAAAAAAAAAAAAAAAAAAAAAAAAAAAAAAAAAAAAAAAAAAAAAAAAAAAAAAAAAAAAAAAAAAAAAAAAAAAAAAAAAAAAAAAAAAAAAAAAAAAAAAAAAAAAAAAAAAAAAAAAAAAAAAAAAAAAAAAAAAAAAAAAAAAAAAAAAAAAAAAAAAAAAAAAAAAAAAAAAAAAAAAAAAAAAAAAAAAAAAAAAAAAAAAAAAAAAAAAAAAAAAAAAAAAAAAAAAAAAAAAAAAAAAAAAAAAAAAAAAAAAAAAAAAAAAAAAAAAAAAAAAAAAAAAAAAAAAAAAAAAAAAAAAAAAAAAAAAAAAAAAAAAAAAAAAAAAAAAAAAAAAAAAAAAAAAAAAAAAAAAAAAAAAAAAAAAAAAAAAAAAAAAAAAAAAAAAAAAAAAAAAAAAAAAAAAAAAAAAAAAAAAAAAAAAAAAAAAAAAAAAAAAAAAAAAAAAAAAAAAAAAAAAAAAAAAAAAAAAAAAAAAAAAAAAAAAAAAAAAAAAAAAAAAAAAAAAAAAAAAAAAAAAAAAAAAAAAAAAAAAAAAAAAAAAAAAAAAAAAAAAAAAAAAAAAAAAAAAAAAAAAAAAAAAAAAAAAAAAAAAAAAAAAAAAAAAAAAAAAAAAAAAAAAAAAAAAAAAAAAAAAAAAAAAAAAAAAAAAAAAAAAAAAAAAAAAAAAAAAAAAAAAAAAAAAAAAAAAAAAAAAAAAAAAAAAAAAAAAAAAAAAAAAAAAAAAAAAAAAAAAAAAAAAAAAAAAAAAAAAAAAAAAAAAAAAAAAAAAAAAAAAAAAAAAAAAAAAAAAAAAAAAAAAAAAAAAAAAAAAAAAAAAAAAAAAAAAAAAAAAAAAAAAAAAAAAAAAAAAAAAAAAAAAAAAAAAAAAAAAAAAAAAAAAAAAAAAAAAAAAAAAAAAAAAAAAAAAAAAAAAAAAAAAAAAAAAAAAAAAAAAAAAAAAAAAAAAAAAAAAAAAAAAAAAAAAAAAAAAAAAAAAAAAAAAAAAAAAAAAAAAAAAAAAAAAAAAAAAAAAAAAAAAAAAAAAAAAAAAAAAAAAAAAAAAAAAAAAAAAAAAAAAAAAAAAAAAAAAAAAAAAAAAAAAAAAAAAAAAAAAAAAAAAAAAAAAAAAAAAAAAAAAAAAAAAAAAAAAAAAAAAAAAAAAAAAAAAAAAAAAAAAAAAAAAAAAAAAAAAAAAAAAAAAAAAAAAAAAAAAAAAAAAAAAAAAAAAAAAAAAAAAAAAAAAAAAAAAAAAAAAAAAAAAAAAAAAAAAAAAAAAAAAAAAAAAAAAAAAAAAAAAAAAAAAAAAAAAAAAAAAAAAAAAAAAAAAAAAAAAAAAAAAAAAAAAAAAAAAAAAAAAAAAAAAAAAAAAAAAAAAAAAAAAAAAAAAAAAAAAAAAAAAAAAAAAAAAAAAAAAAAAAAAAAAAAAAAAAAAAAAAAAAAAAAAAAAAAAAAAAAAAAAAAAAAAAAAAAAAAAAAAAAAAAAAAAAAAAAAAAAAAAAAAAAAAAAAAAAAAAAAAAAAAAAAAAAAAAAAAAAAAAAAAAAAAAAAAAAAAAAAAAAAAAAAAAAAAAAAAAAAAAAAAAAAAAAAAAAAAAAAAAAAAAAAAAAAAAAAAAAAAAAAAAAAAAAAAAAAAAAAAAAAAAAAAAAAAAAAAAAAAAAAAAAAAAAAAAAAAAAAAAAAAAAAAAAAAAAAAAAAAAAAAAAAAAAAAAAAAAAAAAAAAAAAAAAAAAAAAAAAAAAAAAAAAAAAAAAAAAAAAAAAAAAAAAAAAAAAAAAAAAAAAAAAAAAAAAAAAAAAAAAAAAAAAAAAAAAAAAAAAAAAAAAAAAAAAAAAAAAAAAAAAAAAAAAAAAAAAAAAAAAAAAAAAAAAAAAAAAAAAAAAAAAAAAAAAAAAAAAAAAAAAAAAAAAAAAAAAAAAAAAAAAAAAAAAAAAAAAAAAAAAAAAAAAAAAAAAAAAAAAAAAAAAAAAAAAAAAAAAAAAAAAAAAAAAAAAAAAAAAAAAAAAAAAAAAAAAAAAAAAAAAAAAAAAAAAAAAAAAAAAAAAAAAAAAAAAAAAAAAAAAAAAAAAAAAAAAAAAAAAAAAAAAAAAAAAAAAAAAAAAAAAAAAAAAAAAAAAAAAAAAAAAAAAAAAAAAAAAAAAAAAAAAAAAAAAAAAAAAAAAAAAAAAAAAAAAAAAAAAAAAAAAAAAAAAAAAAAAAAAAAAAAAAAAAAAAAAAAAAAAAAAAAAAAAAAAAAAAAAAAAAAAAAAAAAAAAAAAAAAAAAAAAAAAAAAAAAAAAAAAAAAAAAAAAAAAAAAAAAAAAAAAAAAAAAAAAAAAAAAAAAAAAAAAAAAAAAAAAAAAAAAAAAAAAAAAAAAAAAAAAAAAAAAAAAAAAAAAAAAAAAAAAAAAAAAAAAAAAAAAAAAAAAAAAAAAAAAAAAAAAAAAAAAAAAAAAAAAAAAAAAAAAAAAAAAAAAAAAAAAAAAAAAAAAAAAAAAAAAAAAAAAAAAAAAAAAAAAAAAAAAAAAAAAAAAAAAAAAAAAAAAAAAAAAAAAAAAAAAAAAAAAAAAAAAAAAAAAAAAAAAAAAAAAAAAAAAAAAAAAAAAAAAAAAAAAAAAAAAAAAAAAAAAAAAAAAAAAAAAAAAAAAAAAAAAAAAAAAAAAAAAAAAAAAAAAAAAAAAAAAAAAAAAAAAAAAAAAAAAAAAAAAAAAAAAAAAAAAAAAAAAAAAAAAAAAAAAAAAAAAAAAAAAAAAAAAAAAAAAAAAAAAAAAAAAAAAAAAAAAAAAAAAAAAAAAAAAAAAAAAAAAAAAAAAAAAAAAAAAAAAAAAAAAAAAAAAAAAAAAAAAAAAAAAAAAAAAAAAAAAAAAAAAAAAAAAAAAAAAAAAAAAAAAAAAAAAAAAAAAAAAAAAAAAAAAAAAAAAAAAAAAAAAAAAAAAAAAAAAAAAAAAAAAAAAAAAAAAAAAAAAAAAAAAAAAAAAAAAAAAAAAAAAAAAAAAAAAAAAAAAAAAAAAAAAAAAAAAAAAAAAAAAAAAAAAAAAAAAAAAAAAAAAAAAAAAAAAAAAAAAAAAAAAAAAAAAAAAAAAAAAAAAAAAAAAAAAAAAAAAAAAAAAAAAAAAAPZYQOO5sbdwt2XVHc1AYbPnXaoMYjBqmfSIFZkSqwX2+Faiv/e8gvToORFY9LpvNYGEkCqnva4xol4T9GnfnEA8cFI=</c2pa:manifest></metadata>
    
    <title>M_Ed_cmyk_10cm</title>
    <desc>Created with Sketch.</desc>
    <defs>
        <path d="M0.0307689502,14.4437224 L0.0307692308,7.08834608 C5.27661829,0.305804063 13.1830769,-3.17884819 13.1830769,4.74666667 C13.1830769,8.09384615 16.2225641,4.57179487 18.5953846,2.63128205 C22.3169231,-0.417948718 27.2297436,0.25025641 27.2297436,7.11230769 L27.2297436,12.7317949 L27.1107692,12.7317949 C26.3328205,7.51794872 21.9774359,7.22 18.5953846,9.99128205 C16.2225641,11.9297436 13.1830769,15.454359 13.1830769,12.1020513 C13.1830769,4.18265976 5.27555823,7.66348733 0.0307689502,14.4437224 Z" id="path-1"></path>
        <path d="M0.0307692308,7.19243529 C5.27555823,0.411171307 13.1830769,-3.07220202 13.1830769,4.85333333 C13.1830769,8.20205128 16.2225641,4.67846154 18.5953846,2.73641026 C22.3169231,-0.317948718 27.2297436,0.355384615 27.2297436,7.2174359 L27.2297436,12.8297436 L27.1107692,12.8297436 C26.3328205,7.62564103 21.9774359,7.32410256 18.5953846,10.0994872 C16.2225641,12.0338462 13.1830769,15.5620513 13.1830769,12.2133333 C13.1830769,4.29008601 5.38798779,7.79544435 0.0307692308,14.1750627 L0.0307692308,7.19243529 Z" id="path-3"></path>
    </defs>
    <g id="M_Ed_cmyk_10cm" stroke="none" stroke-width="1" fill="none" fill-rule="evenodd">
        <g id="Group-3" transform="translate(0.000000, 12.307692)">
            <mask id="mask-2" fill="white">
                <use xlink:href="#path-1"></use>
            </mask>
            <use id="Clip-2" fill="#C82331" xlink:href="#path-1"></use>
        </g>
        <g id="Group-6" transform="translate(0.000000, 2.564103)">
            <mask id="mask-4" fill="white">
                <use xlink:href="#path-3"></use>
            </mask>
            <use id="Clip-5" fill="#C82331" xlink:href="#path-3"></use>
        </g>
        <path d="M57.7466667,6.15230769 C56.9415385,6.15230769 56.1723077,6.35179487 55.4635897,6.74871795 C54.7953846,7.11692308 54.2769231,7.67487179 53.9107692,8.40410256 C53.6774359,7.67487179 53.2451282,7.11692308 52.6317949,6.75076923 C51.9769231,6.35179487 51.2328205,6.15230769 50.4292308,6.15230769 C49.4333333,6.15230769 48.6041026,6.37025641 47.9594872,6.80051282 C47.3482051,7.20666667 46.8451282,7.76923077 46.4574359,8.47846154 L46.4574359,6.50512821 L44.9605128,6.50512821 L44.9605128,18.7466667 L46.5758974,18.7466667 L46.5758974,11.9230769 C46.5758974,11.2928205 46.6497436,10.7005128 46.7846154,10.1697436 C46.9235897,9.63948718 47.1384615,9.17076923 47.4215385,8.78358974 C47.7015385,8.39282051 48.0728205,8.08358974 48.5194872,7.86358974 C48.9764103,7.64153846 49.5112821,7.53128205 50.1210256,7.53128205 C50.5733333,7.53128205 50.9646154,7.60820513 51.2892308,7.76051282 C51.6046154,7.91076923 51.8651282,8.11897436 52.0507692,8.38153846 C52.2364103,8.64615385 52.3753846,8.9625641 52.46,9.31897436 C52.5461538,9.69128205 52.5897436,10.0764103 52.5897436,10.4671795 L52.5897436,18.7466667 L54.1984615,18.7466667 L54.1984615,11.8292308 C54.1984615,11.2723077 54.2553846,10.725641 54.3517949,10.2117949 C54.4523077,9.70512821 54.6246154,9.24512821 54.8712821,8.83692308 C55.1117949,8.44205128 55.4461538,8.12410256 55.8553846,7.88564103 C56.2712821,7.65230769 56.7958974,7.53128205 57.4189744,7.53128205 C58.454359,7.53128205 59.1887179,7.78717949 59.5969231,8.29179487 C60.0041026,8.80102564 60.2133333,9.55897436 60.2133333,10.5374359 L60.2133333,18.7466667 L61.825641,18.7466667 L61.825641,10.4671795 C61.825641,7.60307692 60.4558974,6.15230769 57.7466667,6.15230769" id="Fill-7" fill="#C82331"></path>
        <path d="M72.2538462,12.2117949 L72.2538462,13.9887179 C72.2538462,14.5707692 72.1389744,15.1005128 71.9153846,15.5512821 C71.6953846,16.0153846 71.3923077,16.4082051 71.02,16.7282051 C70.6502564,17.0471795 70.2025641,17.2938462 69.6938462,17.4641026 C68.8723077,17.7384615 67.945641,17.8410256 67.1076923,17.5630769 C66.7846154,17.4512821 66.5020513,17.2938462 66.2594872,17.0917949 C66.0189744,16.8882051 65.8220513,16.6425641 65.6805128,16.3605128 C65.5369231,16.0851282 65.4635897,15.7594872 65.4635897,15.3964103 C65.4635897,14.8271795 65.6384615,14.3789744 65.9707692,14.0712821 C66.3164103,13.7589744 66.7620513,13.5194872 67.2958974,13.3471795 C67.8353846,13.1805128 68.4461538,13.0487179 69.1005128,12.9630769 C69.7676923,12.8753846 70.4148718,12.7815385 71.0379487,12.6723077 C71.2441026,12.6358974 71.4841026,12.5841026 71.754359,12.5010256 C71.9712821,12.4384615 72.1389744,12.3425641 72.2538462,12.2117949 Z M74.6625641,17.3676923 C74.1261538,17.3676923 73.8666667,17.0989744 73.8666667,16.5420513 L73.8666667,10.1158974 C73.8666667,9.29230769 73.7251282,8.61487179 73.4558974,8.10153846 C73.1871795,7.58358974 72.8323077,7.17948718 72.4051282,6.89282051 C71.9671795,6.60358974 71.4912821,6.41282051 70.9517949,6.30564103 C69.7035897,6.07179487 68.4302564,6.11487179 67.3958974,6.39025641 C66.814359,6.54923077 66.3005128,6.79589744 65.8646154,7.12769231 C65.4235897,7.46205128 65.0733333,7.8974359 64.8205128,8.41948718 C64.5671795,8.9374359 64.4158974,9.56358974 64.3661538,10.2748718 L64.3620513,10.3482051 L65.9789744,10.3482051 L65.9820513,10.2835897 C66.0153846,9.32358974 66.3189744,8.6174359 66.8912821,8.18871795 C67.4723077,7.75384615 68.2307692,7.53128205 69.1502564,7.53128205 C69.5871795,7.53128205 70.0005128,7.56564103 70.3723077,7.63538462 C70.7471795,7.70512821 71.0748718,7.83179487 71.3548718,8.01384615 C71.6328205,8.19846154 71.8523077,8.44205128 72.0097436,8.75128205 C72.1692308,9.06153846 72.2538462,9.46666667 72.2538462,9.94923077 C72.2538462,10.2676923 72.2112821,10.5297436 72.1266667,10.7230769 C72.0466667,10.9112821 71.9358974,11.0615385 71.7846154,11.1784615 C71.6353846,11.2882051 71.4461538,11.3666667 71.2266667,11.4092308 C70.9938462,11.4589744 70.7230769,11.4989744 70.4128205,11.5261538 C69.6092308,11.6215385 68.825641,11.7225641 68.0533333,11.8169231 C67.2825641,11.9230769 66.5687179,12.0994872 65.9451282,12.3533333 C65.3174359,12.6061538 64.8112821,12.9805128 64.4266667,13.465641 C64.0461538,13.9482051 63.8507692,14.6292308 63.8507692,15.4887179 C63.8507692,16.1097436 63.9625641,16.6502564 64.1728205,17.1005128 C64.3923077,17.5538462 64.6912821,17.9348718 65.0610256,18.2287179 C65.434359,18.52 65.874359,18.7425641 66.3753846,18.8769231 C66.8789744,19.0097436 67.4189744,19.0764103 67.9769231,19.0764103 C68.5692308,19.0764103 69.0933333,19.0225641 69.5317949,18.9102564 C69.9666667,18.8005128 70.3584615,18.6394872 70.7,18.4328205 C71.0379487,18.2287179 71.3476923,17.9692308 71.6276923,17.6569231 C71.8815385,17.3769231 72.1328205,17.0605128 72.3723077,16.7302564 C72.374359,16.9794872 72.3948718,17.2153846 72.4287179,17.4374359 C72.4635897,17.7046154 72.554359,17.9348718 72.6851282,18.1323077 C72.814359,18.3276923 73.0015385,18.4830769 73.2430769,18.5917949 C73.4789744,18.6969231 73.7851282,18.7466667 74.1733333,18.7466667 C74.38,18.7466667 74.5476923,18.7379487 74.685641,18.7246154 C74.8220513,18.7087179 74.9717949,18.6861538 75.1466667,18.6548718 L75.2051282,18.6461538 L75.2051282,17.2405128 L75.1097436,17.2825641 C74.9717949,17.3405128 74.8246154,17.3676923 74.6625641,17.3676923 Z" id="Fill-8" fill="#C82331"></path>
        <path d="M85.3215385,14.3338462 C85.2697436,14.8271795 85.1517949,15.2820513 84.9512821,15.6953846 C84.7517949,16.1123077 84.494359,16.4733333 84.1912821,16.7646154 C83.8871795,17.0630769 83.5297436,17.3 83.1328205,17.4687179 C82.7353846,17.6394872 82.3092308,17.7241026 81.8687179,17.7241026 C81.1769231,17.7241026 80.5682051,17.5764103 80.0471795,17.285641 C79.5271795,16.9933333 79.0897436,16.605641 78.7430769,16.1317949 C78.3989744,15.6589744 78.1353846,15.105641 77.9589744,14.4928205 C77.7779487,13.8917949 77.6876923,13.2620513 77.6876923,12.6251282 C77.6876923,11.9907692 77.7779487,11.3646154 77.9589744,10.7564103 C78.1353846,10.1471795 78.4015385,9.59487179 78.7430769,9.12358974 C79.0851282,8.64820513 79.5271795,8.25794872 80.0471795,7.96923077 C80.5671795,7.6825641 81.1769231,7.53128205 81.8687179,7.53128205 C82.8323077,7.53128205 83.5923077,7.78717949 84.1220513,8.28769231 C84.6528205,8.78923077 85.0292308,9.49589744 85.2276923,10.3907692 L85.2410256,10.4425641 L86.8497436,10.4425641 L86.8405128,10.3661538 C86.6641026,8.9625641 86.1158974,7.8974359 85.2051282,7.2 C84.2989744,6.50512821 83.1748718,6.15230769 81.8687179,6.15230769 C80.9420513,6.15230769 80.1097436,6.32923077 79.385641,6.6774359 C78.6717949,7.0225641 78.0579487,7.49538462 77.5702564,8.07948718 C77.0820513,8.66 76.7076923,9.35076923 76.4564103,10.1282051 C76.1989744,10.9112821 76.0748718,11.7523077 76.0748718,12.6251282 C76.0748718,13.5061538 76.1989744,14.3420513 76.4564103,15.1225641 C76.7076923,15.9015385 77.0820513,16.5912821 77.5692308,17.1753846 C78.0579487,17.7564103 78.6717949,18.2287179 79.385641,18.5630769 C80.1020513,18.9046154 80.9394872,19.0764103 81.8687179,19.0764103 C83.2538462,19.0764103 84.4051282,18.6548718 85.2964103,17.8271795 C86.1810256,16.9933333 86.7323077,15.8225641 86.934359,14.3471795 L86.9420513,14.2702564 L85.325641,14.2702564 L85.3215385,14.3338462" id="Fill-9" fill="#C82331"></path>
        <path d="M101.648718,6.15230769 C100.842564,6.15230769 100.072821,6.35179487 99.3641026,6.74871795 C98.7010256,7.11692308 98.1764103,7.67487179 97.8169231,8.40410256 C97.5774359,7.67487179 97.1497436,7.11692308 96.5394872,6.75076923 C95.8805128,6.35179487 95.134359,6.15230769 94.3328205,6.15230769 C93.334359,6.15230769 92.5071795,6.37025641 91.8620513,6.80051282 C91.2517949,7.20153846 90.7482051,7.76717949 90.3584615,8.47589744 L90.3584615,6.50512821 L88.8641026,6.50512821 L88.8641026,18.7466667 L90.4794872,18.7466667 L90.4794872,11.9230769 C90.4794872,11.2928205 90.5492308,10.7005128 90.6882051,10.1697436 C90.8271795,9.63948718 91.0405128,9.17333333 91.3215385,8.78358974 C91.6051282,8.39282051 91.9753846,8.08358974 92.4215385,7.86358974 C92.874359,7.64153846 93.4148718,7.53128205 94.0271795,7.53128205 C94.4764103,7.53128205 94.8682051,7.60820513 95.1902564,7.76051282 C95.5082051,7.91076923 95.7651282,8.11897436 95.9517949,8.38153846 C96.14,8.64615385 96.2789744,8.9625641 96.3635897,9.31897436 C96.4482051,9.68615385 96.4923077,10.0748718 96.4923077,10.4671795 L96.4923077,18.7466667 L98.1041026,18.7466667 L98.1041026,11.8292308 C98.1041026,11.2723077 98.1558974,10.725641 98.2574359,10.2117949 C98.3533333,9.69794872 98.5307692,9.23589744 98.7769231,8.83692308 C99.0174359,8.44205128 99.3523077,8.12410256 99.7615385,7.88564103 C100.174872,7.65230769 100.698974,7.53128205 101.322564,7.53128205 C102.357436,7.53128205 103.092308,7.78717949 103.497949,8.29179487 C103.909744,8.80102564 104.121538,9.55897436 104.121538,10.5374359 L104.121538,18.7466667 L105.730256,18.7466667 L105.730256,10.4671795 C105.730256,7.60307692 104.358974,6.15230769 101.648718,6.15230769" id="Fill-10" fill="#C82331"></path>
        <polygon id="Fill-11" fill="#C82331" points="108.904615 18.7471795 110.51641 18.7471795 110.51641 6.50512821 108.904615 6.50512821"></polygon>
        <polygon id="Fill-12" fill="#C82331" points="113.713333 18.7466667 115.327692 18.7466667 115.327692 1.85538462 113.713333 1.85538462"></polygon>
        <polygon id="Fill-13" fill="#C82331" points="118.52359 18.7466667 120.139487 18.7466667 120.139487 1.85538462 118.52359 1.85538462"></polygon>
        <path d="M130.584103,12.2117949 L130.584103,13.9887179 C130.584103,14.5707692 130.472308,15.1005128 130.254359,15.5512821 C130.030256,16.0107692 129.726667,16.405641 129.351795,16.7282051 C128.98,17.0471795 128.536923,17.2938462 128.025641,17.4641026 C127.204103,17.7384615 126.284615,17.8451282 125.444103,17.5630769 C125.118974,17.4512821 124.842051,17.2979487 124.598974,17.0917949 C124.354359,16.8882051 124.158462,16.6425641 124.012308,16.3605128 C123.868718,16.0805128 123.797949,15.7548718 123.797949,15.3964103 C123.797949,14.8158974 123.960513,14.3830769 124.305128,14.0712821 C124.645641,13.7589744 125.091282,13.5194872 125.630256,13.3471795 C126.169744,13.1805128 126.777949,13.0487179 127.434872,12.9630769 C128.099487,12.8753846 128.749231,12.7815385 129.369744,12.6723077 C129.579487,12.6358974 129.815897,12.5841026 130.084615,12.5010256 C130.304103,12.4384615 130.472308,12.3425641 130.584103,12.2117949 Z M132.999487,17.3676923 C132.458974,17.3676923 132.199487,17.0989744 132.199487,16.5420513 L132.199487,10.1158974 C132.199487,9.29230769 132.06359,8.61487179 131.790256,8.10153846 C131.521538,7.58358974 131.167692,7.17948718 130.736923,6.89282051 C130.309744,6.60358974 129.818462,6.40820513 129.278462,6.30564103 C128.040513,6.07179487 126.763077,6.11487179 125.729231,6.39025641 C125.147692,6.54923077 124.627692,6.79589744 124.192308,7.12769231 C123.752821,7.46410256 123.405128,7.90410256 123.152308,8.41948718 C122.898974,8.9425641 122.743077,9.56564103 122.697949,10.2748718 L122.695385,10.3482051 L124.313333,10.3482051 L124.313333,10.2835897 C124.345128,9.32358974 124.650769,8.6174359 125.225128,8.18871795 C125.807692,7.75384615 126.567692,7.53128205 127.482051,7.53128205 C127.919487,7.53128205 128.329744,7.56564103 128.702051,7.63538462 C129.084103,7.70512821 129.404103,7.82769231 129.689231,8.01384615 C129.967179,8.19589744 130.189231,8.44 130.344103,8.75128205 C130.506154,9.05897436 130.584103,9.46358974 130.584103,9.94923077 C130.584103,10.2676923 130.543077,10.5276923 130.46359,10.7230769 C130.378974,10.9112821 130.267692,11.0615385 130.117436,11.1784615 C129.971795,11.2882051 129.778462,11.3666667 129.561026,11.4092308 C129.325641,11.4589744 129.057436,11.4989744 128.742051,11.5261538 C127.94359,11.6215385 127.162051,11.7225641 126.384103,11.8169231 C125.604615,11.9230769 124.897949,12.0994872 124.279487,12.3533333 C123.658974,12.6046154 123.145641,12.9794872 122.759487,13.465641 C122.378462,13.9517949 122.185128,14.6338462 122.185128,15.4887179 C122.185128,16.1174359 122.293846,16.6451282 122.507179,17.1005128 C122.721026,17.5538462 123.02,17.9348718 123.396923,18.2287179 C123.770769,18.52 124.208205,18.7425641 124.712308,18.8769231 C125.210769,19.0097436 125.750769,19.0764103 126.311795,19.0764103 C126.902051,19.0764103 127.422564,19.0225641 127.868718,18.9102564 C128.298462,18.8005128 128.692821,18.6394872 129.034359,18.4328205 C129.379487,18.2287179 129.689231,17.9671795 129.959487,17.6569231 C130.211795,17.3794872 130.46359,17.0605128 130.702564,16.7302564 C130.708718,16.9933333 130.727692,17.2241026 130.760513,17.4374359 C130.805128,17.7046154 130.888718,17.9323077 131.016923,18.1323077 C131.150769,18.3276923 131.336923,18.4830769 131.574872,18.5917949 C131.812308,18.6969231 132.114872,18.7466667 132.501538,18.7466667 C132.712821,18.7466667 132.88359,18.7379487 133.02,18.7246154 C133.151282,18.7087179 133.308205,18.6861538 133.478462,18.6548718 L133.532821,18.6461538 L133.532821,17.2405128 L133.438974,17.2825641 C133.308205,17.3405128 133.163077,17.3676923 132.999487,17.3676923 Z" id="Fill-14" fill="#C82331"></path>
        <g id="Group-18" transform="translate(35.384615, 0.000000)">
            <path d="M109.832308,8.92615385 C109.693333,8.34153846 109.442051,7.83897436 109.096923,7.43282051 C108.748718,7.02974359 108.275385,6.70871795 107.691795,6.48717949 C107.112308,6.26666667 106.391795,6.15230769 105.54359,6.15230769 C104.673846,6.15230769 103.864615,6.38153846 103.14,6.83179487 C102.467179,7.24717949 101.975385,7.79692308 101.693846,8.43179487 L101.693846,6.50512821 L100.081026,6.50512821 L100.081026,18.7466667 L101.693846,18.7466667 L101.693846,11.6205128 C101.709744,11.0328205 101.806667,10.4830769 101.980513,9.98512821 C102.160513,9.48717949 102.409231,9.04769231 102.721026,8.69384615 C103.032308,8.33487179 103.422564,8.04974359 103.873333,7.84153846 C104.32359,7.63282051 104.849231,7.53128205 105.428205,7.53128205 C106.010256,7.53128205 106.502051,7.62564103 106.887179,7.80512821 C107.272308,7.98974359 107.583077,8.24102564 107.811282,8.55846154 C108.042051,8.87538462 108.201538,9.25846154 108.295897,9.69794872 C108.386154,10.1282051 108.430769,10.6117949 108.430769,11.1251282 L108.430769,18.7466667 L110.045128,18.7466667 L110.045128,10.8917949 C110.045128,10.1707692 109.97641,9.51025641 109.832308,8.92615385" id="Fill-15" fill="#C82331"></path>
            <polygon id="Fill-17" fill="#C4C1CC" points="0.133333333 39.9692308 1.15794872 39.9692308 1.15794872 0.145128205 0.133333333 0.145128205"></polygon>
        </g>
        <path d="M109.738462,1.78512821 C109.185128,1.78512821 108.722051,2.24205128 108.722051,2.80717949 C108.722051,3.36666667 109.185128,3.81641026 109.738462,3.81641026 C110.295897,3.81641026 110.754872,3.36666667 110.754872,2.80717949 C110.754872,2.24205128 110.295897,1.78512821 109.738462,1.78512821" id="Fill-19" fill="#C82331"></path>
        <path d="M46.0789744,32.44 C46.3302564,30.2979487 47.6569231,28.1605128 50.0794872,28.1605128 C52.5020513,28.1605128 53.8487179,30.3025641 53.9425641,32.44 L46.0789744,32.44 Z M50.0794872,26.7641026 C48.2569231,26.7641026 46.7651282,27.4810256 45.7661538,28.8374359 C44.9087179,30.0015385 44.4364103,31.6097436 44.4364103,33.3651282 C44.4364103,37.4989744 46.5466667,39.9671795 50.0794872,39.9671795 C53.0517949,39.9671795 54.834359,38.5020513 55.5297436,35.4871795 L55.5476923,35.4092308 L53.9107692,35.4092308 L53.8979487,35.4569231 C53.3758974,37.494359 52.0553846,38.5707692 50.0794872,38.5707692 C47.3717949,38.5707692 46.1205128,36.2041026 46.0723077,33.8364103 L55.5769231,33.8364103 L55.5794872,33.7748718 C55.6574359,31.5071795 55.0123077,29.4923077 53.8092308,28.2476923 C52.8589744,27.2630769 51.6035897,26.7641026 50.0794872,26.7641026 Z" id="Fill-20" fill="#f4f2f7"></path>
        <path d="M66.9025641,33.3651282 C66.9025641,37.2035897 64.6964103,38.5707692 62.6312821,38.5707692 C59.6907692,38.5707692 58.6476923,35.7671795 58.6476923,33.3651282 C58.6476923,30.9646154 59.6907692,28.1605128 62.6312821,28.1605128 C64.6964103,28.1605128 66.9025641,29.5276923 66.9025641,33.3651282 Z M66.9025641,29.3235897 C66.2379487,27.7615385 64.5851282,26.7641026 62.6312821,26.7641026 C58.4835897,26.7641026 57.0117949,30.3205128 57.0117949,33.3651282 C57.0117949,35.1830769 57.5025641,36.8235897 58.3933333,37.9841026 C59.3882051,39.2815385 60.8538462,39.9671795 62.6312821,39.9671795 C64.4764103,39.9671795 66.3261538,38.8702564 67.0225641,37.3892308 L67.0225641,39.6076923 L68.5384615,39.6076923 L68.5384615,22.3810256 L66.9025641,22.3810256 L66.9025641,29.3235897 Z" id="Fill-21" fill="#f4f2f7"></path>
        <path d="M79.8374359,33.6769231 C79.8374359,37.2897436 77.8712821,38.5707692 76.1882051,38.5707692 C73.9620513,38.5707692 73.0235897,37.6041026 72.9471795,35.2338462 L72.9471795,27.1235897 L71.3112821,27.1235897 L71.3112821,35.2097436 C71.3112821,38.3666667 72.7912821,39.9671795 75.7092308,39.9671795 C77.5717949,39.9671795 79.1466667,39.0446154 79.9564103,37.4902564 L79.9564103,39.6076923 L81.4728205,39.6076923 L81.4728205,27.1235897 L79.8374359,27.1235897 L79.8374359,33.6769231" id="Fill-22" fill="#f4f2f7"></path>
        <path d="M93.06,35.1082051 C92.8728205,37.114359 91.3882051,38.5707692 89.5297436,38.5707692 C86.5948718,38.5707692 85.2584615,35.8728205 85.2584615,33.3651282 C85.2584615,30.8584615 86.5948718,28.1605128 89.5297436,28.1605128 C91.3553846,28.1605128 92.5430769,29.1697436 92.9651282,31.0794872 L92.9758974,31.1297436 L94.6066667,31.1297436 L94.5984615,31.0584615 C94.2784615,28.3697436 92.3835897,26.7641026 89.5297436,26.7641026 C87.7225641,26.7641026 86.205641,27.4430769 85.1405128,28.7266667 C84.1620513,29.9071795 83.6230769,31.554359 83.6230769,33.3651282 C83.6230769,35.1769231 84.1620513,36.8241026 85.1405128,38.0041026 C86.205641,39.2882051 87.7225641,39.9671795 89.5297436,39.9671795 C92.305641,39.9671795 94.2841026,38.1107692 94.6938462,35.1225641 L94.7035897,35.0507692 L93.0651282,35.0507692 L93.06,35.1082051" id="Fill-23" fill="#f4f2f7"></path>
        <path d="M102.090256,33.6020513 C102.52,33.5415385 102.964103,33.4789744 103.385128,33.4035897 C103.76,33.3379487 104.363077,33.2312821 104.627692,32.9241026 L104.627692,34.7553846 C104.637949,35.7558974 104.287692,36.6446154 103.614872,37.3246154 C102.830256,38.1169231 101.651282,38.5707692 100.380513,38.5707692 C98.6328205,38.5707692 97.6902564,37.3451282 97.6902564,36.1912821 C97.6902564,34.2241026 99.8271795,33.9220513 102.090256,33.6020513 Z M107.086154,38.2117949 C106.540513,38.2117949 106.26359,37.9271795 106.26359,37.3651282 L106.26359,30.8030769 C106.26359,28.1230769 104.710769,26.7641026 101.650256,26.7641026 C98.5153846,26.7641026 96.7153846,28.2569231 96.5815385,30.9676923 L96.5774359,31.034359 L98.2148718,31.034359 L98.2169231,30.9723077 C98.2415385,29.9220513 98.6958974,28.1605128 101.458462,28.1605128 C103.621026,28.1605128 104.627692,28.9466667 104.627692,30.6358974 C104.627692,31.9671795 103.947179,32.1107692 102.74359,32.2492308 C102.519487,32.2753846 102.293846,32.3010256 102.069231,32.3261538 C98.9758974,32.6712821 96.054359,32.9979487 96.054359,36.2871795 C96.054359,38.5569231 97.6661538,39.9671795 100.261026,39.9671795 C102.622564,39.9671795 103.711795,39.0728205 104.748718,37.5241026 C104.782564,39.2548718 105.478462,39.6076923 106.58359,39.6076923 C106.993846,39.6076923 107.235897,39.5841026 107.578462,39.5102564 L107.628205,39.5 L107.628205,38.0866667 L107.542051,38.1205128 C107.427179,38.1661538 107.242051,38.2117949 107.086154,38.2117949 Z" id="Fill-24" fill="#f4f2f7"></path>
        <path d="M111.726154,23.4107692 L110.090256,23.4107692 L110.090256,27.1235897 L107.935385,27.1235897 L107.935385,28.5189744 L110.090256,28.5189744 L110.090256,36.9097436 C110.077949,38.0179487 110.263077,38.705641 110.691795,39.1389744 C111.110256,39.5625641 111.771795,39.7512821 112.835897,39.7512821 C113.065641,39.7512821 113.291795,39.7384615 113.510769,39.7271795 C113.727179,39.7153846 113.951795,39.7030769 114.177436,39.7030769 L114.240513,39.7030769 L114.240513,38.2764103 L114.170256,38.2841026 C113.746154,38.3312821 113.312821,38.3548718 112.888718,38.3558974 C111.893333,38.2892308 111.726154,37.8194872 111.726154,36.7902564 L111.726154,28.5189744 L114.240513,28.5189744 L114.240513,27.1235897 L111.726154,27.1235897 L111.726154,23.4107692" id="Fill-25" fill="#f4f2f7"></path>
        <path d="M127.063077,38.5707692 C124.128205,38.5707692 122.791795,35.8728205 122.791795,33.3651282 C122.791795,30.8584615 124.128205,28.1605128 127.063077,28.1605128 C129.997949,28.1605128 131.334359,30.8584615 131.334359,33.3651282 C131.334359,35.8728205 129.997949,38.5707692 127.063077,38.5707692 Z M127.063077,26.7641026 C125.25641,26.7641026 123.738974,27.4430769 122.673846,28.7266667 C121.695385,29.9071795 121.15641,31.554359 121.15641,33.3651282 C121.15641,35.1769231 121.695385,36.8241026 122.673846,38.0041026 C123.738974,39.2882051 125.25641,39.9671795 127.063077,39.9671795 C128.870256,39.9671795 130.388205,39.2882051 131.453333,38.0041026 C132.431795,36.8241026 132.970769,35.1769231 132.970769,33.3651282 C132.970769,31.554359 132.431795,29.9071795 131.453333,28.7266667 C130.388205,27.4430769 128.870256,26.7641026 127.063077,26.7641026 Z" id="Fill-26" fill="#f4f2f7"></path>
        <path d="M140.692308,26.7641026 C138.958974,26.7641026 137.371795,27.7205128 136.756923,29.1133333 L136.756923,27.1235897 L135.121026,27.1235897 L135.121026,39.6076923 L136.756923,39.6076923 L136.756923,32.3369231 C136.806154,29.8384615 138.34,28.1605128 140.573333,28.1605128 C142.670769,28.1605128 143.647179,29.3271795 143.647179,31.8328205 L143.647179,39.6076923 L145.282564,39.6076923 L145.282564,31.5928205 C145.282564,28.2533333 143.866667,26.7641026 140.692308,26.7641026" id="Fill-27" fill="#f4f2f7"></path>
        <path d="M117.663077,22.5825641 C117.109744,22.5825641 116.647179,23.0394872 116.647179,23.6046154 C116.647179,24.1641026 117.109744,24.6138462 117.663077,24.6138462 C118.221026,24.6138462 118.679487,24.1641026 118.679487,23.6046154 C118.679487,23.0394872 118.221026,22.5825641 117.663077,22.5825641 Z M116.845128,39.6076923 L118.481026,39.6076923 L118.481026,27.1235897 L116.845128,27.1235897 L116.845128,39.6076923 Z" id="Fill-28" fill="#f4f2f7"></path>
    </g>
</svg>