<svg width="312" height="56" viewBox="0 0 312 56" fill="none" xmlns="http://www.w3.org/2000/svg">
<path fill-rule="evenodd" clip-rule="evenodd" d="M131.567 12C134.63 12 137.649 12.7057 140.377 14.0615C142.928 15.3814 145.058 17.3578 146.536 19.7746C148.002 22.2795 148.774 25.1136 148.774 27.9968C148.774 30.8797 148.002 33.7128 146.536 36.2174C145.06 38.6373 142.93 40.6164 140.377 41.9369C137.649 43.2927 134.63 44 131.567 44C128.505 44 125.485 43.2927 122.757 41.9369V41.9433C120.201 40.6196 118.07 38.6341 116.598 36.2063C115.131 33.7086 114.359 30.8806 114.359 28.0032C114.359 25.1255 115.131 22.2964 116.598 19.7985C118.07 17.3707 120.201 15.3851 122.757 14.0615C125.485 12.7058 128.505 12 131.567 12ZM131.567 17.0641C129.561 17.0641 127.584 17.5457 125.814 18.4654C124.128 19.3815 122.739 20.7375 121.801 22.3805C120.84 24.1064 120.336 26.04 120.336 28.0032C120.336 29.9661 120.84 31.8986 121.801 33.6243C122.741 35.266 124.13 36.6214 125.814 37.5394C127.584 38.459 129.561 38.9407 131.567 38.9407C133.573 38.9406 135.549 38.4589 137.319 37.5394C139.002 36.6196 140.392 35.2648 141.334 33.6243C142.294 31.8986 142.797 29.9661 142.797 28.0032C142.797 26.04 142.294 24.1064 141.334 22.3805C140.394 20.7386 139.003 19.3834 137.319 18.4654C135.549 17.5459 133.573 17.0641 131.567 17.0641Z" fill="#E3E1D9"></path>
<path d="M96.6818 12.0032C99.1383 11.9735 101.576 12.4281 103.848 13.3378C105.959 14.1857 107.839 15.501 109.337 17.1799L105.505 20.6935C104.436 19.5226 103.119 18.5897 101.647 17.9591C100.174 17.3287 98.5787 17.0157 96.9702 17.0403C94.916 17.0075 92.8876 17.4905 91.08 18.4416C89.3771 19.3416 87.9676 20.6899 87.0146 22.3329C86.0587 24.0687 85.558 26.008 85.5579 27.9778C85.5579 29.9478 86.0585 31.8882 87.0146 33.6243C87.9693 35.2659 89.3784 36.614 91.08 37.5156C92.8875 38.4665 94.9162 38.948 96.9702 38.9153C98.5824 38.9393 100.181 38.6225 101.655 37.9853C103.128 37.3481 104.442 36.4063 105.505 35.2256L109.337 38.782C107.84 40.4729 105.955 41.798 103.835 42.6495C101.556 43.5579 99.113 44.011 96.6509 43.9825C93.6068 44.0331 90.5991 43.3321 87.9092 41.9433C85.3665 40.623 83.2479 38.643 81.7875 36.2238C80.3301 33.7165 79.5635 30.8844 79.5634 28.0032C79.5634 25.1217 80.3299 22.2885 81.7875 19.781C83.262 17.3678 85.3861 15.3919 87.9287 14.0678C90.6198 12.6688 93.6317 11.9581 96.6818 12.0032Z" fill="#E3E1D9"></path>
<path d="M215.649 17.3148H198.254V25.3783H213.685V30.1345H198.254V38.7153H216.288V43.5874H192.319V12.4428H215.649V17.3148Z" fill="#E3E1D9"></path>
<path fill-rule="evenodd" clip-rule="evenodd" d="M239.166 12.4428C242.308 12.3865 245.419 13.047 248.252 14.3725C250.805 15.5813 252.945 17.4855 254.411 19.854C255.85 22.3443 256.605 25.1535 256.605 28.0111C256.605 30.8689 255.85 33.6794 254.411 36.1698C252.946 38.5394 250.806 40.4427 248.252 41.6497C245.419 42.9729 242.307 43.628 239.166 43.562H225.186V12.4428H239.166ZM231.118 38.6487L238.879 38.6725C241.017 38.7163 243.136 38.2678 245.063 37.3632C246.784 36.5437 248.214 35.2414 249.17 33.6243C250.115 31.8936 250.609 29.963 250.609 28.0032C250.609 26.0431 250.115 24.1114 249.17 22.3805C248.214 20.7634 246.784 19.4611 245.063 18.6415C243.136 17.737 241.017 17.2884 238.879 17.3323H231.118V38.6487Z" fill="#E3E1D9"></path>
<path d="M17.5763 33.0688L30.007 12.4428H34.8919L34.9343 43.562H29.3193L29.2754 22.9359L18.7772 39.9881H16.1261L5.62793 23.2041V43.562H0V12.4428H4.88329L17.5763 33.0688Z" fill="#E3E1D9"></path>
<path fill-rule="evenodd" clip-rule="evenodd" d="M170.485 12.4428C172.972 12.3859 175.443 12.8398 177.738 13.7758C179.667 14.5643 181.312 15.8961 182.46 17.6005C183.536 19.3903 184.104 21.4281 184.104 23.5025C184.104 25.5765 183.536 27.6133 182.46 29.4029C181.317 31.1158 179.671 32.4555 177.738 33.2466C175.449 34.1801 172.984 34.634 170.503 34.5796H163.288V43.562H157.354V12.4428H170.485ZM163.288 29.6901H170.228C172.816 29.6901 174.761 29.1591 176.118 28.0873C176.794 27.5289 177.327 26.8256 177.676 26.0321C178.024 25.2384 178.178 24.3753 178.126 23.5136C178.178 22.6511 178.024 21.7881 177.676 20.9935C177.328 20.1989 176.794 19.4932 176.118 18.9335C174.774 17.862 172.816 17.3323 170.228 17.3323H163.288V29.6901Z" fill="#E3E1D9"></path>
<path d="M271.105 43.562H265.173V12.4428H271.105V43.562Z" fill="#E3E1D9"></path>
<path d="M55.4451 25.1037L47.3405 43.5382H41.2253L52.737 18.6241L55.4451 25.1037Z" fill="#E3E1D9"></path>
<path d="M75.8728 43.5382H69.6632L55.9388 12.4174H61.4478L75.8728 43.5382Z" fill="#E3E1D9"></path>
<path d="M291.572 25.1037L283.474 43.5382H277.359L288.864 18.6241L291.572 25.1037Z" fill="#E3E1D9"></path>
<path d="M297.581 12.4174L312 43.5382H305.797L292.072 12.4174H297.581Z" fill="#E3E1D9"></path>
</svg>