<svg width="95" height="56" viewBox="0 0 95 56" fill="none" xmlns="http://www.w3.org/2000/svg">
<path fill-rule="evenodd" clip-rule="evenodd" d="M85.1007 12.0038C89.743 12.0187 89.7583 12.019 90.1154 12.3622C90.7701 12.9743 90.7849 13.2579 90.7849 25.4988C90.7849 37.2173 90.7857 37.2171 91.128 37.6351C91.4553 38.0531 91.4552 38.0532 92.0504 37.7995C92.9728 37.4265 93.8504 37.5908 94.4605 38.2472C95.4575 39.337 94.9965 42.1439 93.7018 42.95C93.0769 43.338 92.4369 43.3676 90.4133 43.0691C89.3569 42.9049 88.5831 42.8903 87.735 42.9798C84.7736 43.2783 84.371 43.0838 84.2519 41.2328C84.1626 40.0688 84.163 40.0688 83.8803 40.5015C83.166 41.6361 80.8736 43.4121 80.1146 43.4121C79.9659 43.4122 79.7722 43.4721 79.6979 43.5467C79.608 43.6064 79.1477 43.7412 78.6721 43.8455C74.2076 44.6964 70.0401 41.9792 68.1799 36.9932C67.4211 34.9333 67.0489 31.1871 67.4059 29.2763C67.4803 28.8881 67.6294 28.1262 67.7335 27.5888C67.8377 27.0514 68.0317 26.35 68.1656 26.0216C68.2995 25.6933 68.5073 25.2304 68.5966 24.9915C69.2662 23.3495 71.2158 21.2599 72.823 20.4387C75.9629 18.8415 80.2193 19.2739 82.8831 21.4832C83.5824 22.0653 83.6417 21.961 83.6417 20.1851C83.6417 17.4383 83.2253 16.9606 81.2163 17.4532C79.9367 17.7666 79.936 17.7663 79.2812 17.3782C77.2727 16.2136 77.7342 12.5416 79.9365 12.0788C80.2193 12.0191 82.5411 11.9888 85.1007 12.0038ZM79.9222 25.3643C77.8538 24.7523 76.1269 25.872 75.2935 28.3796C74.8173 29.7976 74.7581 33.992 75.2044 34.933C75.3382 35.2463 75.5608 35.739 75.6948 36.0227C76.8257 38.4857 80.3825 38.5906 81.9749 36.2025C84.4154 32.5303 83.2554 26.3648 79.9222 25.3643Z" fill="#E3E1D9"></path>
<path fill-rule="evenodd" clip-rule="evenodd" d="M16.4522 19.1373C18.9226 18.6298 20.9167 19.302 22.7918 21.2725C23.9376 22.4817 23.9231 22.4817 24.7862 21.6607C25.6193 20.8698 27.8948 19.5264 28.4166 19.5255C28.5803 19.5255 28.7447 19.4656 28.7893 19.391C29.104 18.8989 33.8015 18.884 34.3098 19.391C34.3841 19.4655 34.5777 19.5254 34.7265 19.5255C35.1878 19.5255 36.6464 20.4071 37.3905 21.1236C38.1642 21.8849 38.8636 23.1234 39.1166 24.1533C39.2059 24.5265 39.3254 24.9899 39.3849 25.1988C39.4444 25.4107 39.5338 28.126 39.5784 31.2438C39.6826 38.1853 39.5635 37.7683 41.4981 37.6638C42.7928 37.6041 42.793 37.6036 42.8823 36.1407C42.9269 35.335 43.0306 34.5442 43.0901 34.3794C44.2062 31.364 46.2155 30.1997 52.0189 29.2145C53.12 29.0354 54.7571 28.5717 55.3524 28.2881C57.0043 27.482 57.2578 25.0639 55.7845 24.1533C54.8174 23.5563 53.8205 23.3329 53.1359 23.5566C52.377 23.8104 52.3023 23.9445 52.1684 25.3025C51.9749 27.2581 50.7689 28.1844 48.4027 28.1844C45.5905 28.1842 44.0573 26.6315 44.2357 23.9746C44.3846 21.9593 46.0221 20.3766 48.6413 19.6899C48.9836 19.6003 49.5195 19.4656 49.832 19.391C51.4095 18.988 54.1031 18.8692 56.2012 19.123C59.7131 19.526 61.023 19.9741 62.2582 21.1534C64.0138 22.8401 64.2966 24.3481 64.2966 32.1096C64.2966 38.3492 64.2222 38.0366 65.6358 38.0366C67.3768 38.0366 68.4634 38.9918 68.4636 40.4993C68.4636 44.0223 62.1687 45.2917 59.4304 42.3213C59.103 41.9631 58.7752 41.5145 58.7157 41.3353C58.5967 40.9178 58.4481 40.9328 57.868 41.4401C56.38 42.694 55.1149 43.2762 52.6895 43.7838C49.7132 44.4257 46.215 43.441 44.4292 41.4556C43.9828 40.9629 43.8935 40.903 43.819 41.1269C43.5513 41.9476 43.3875 42.231 42.9263 42.6489C42.212 43.3206 41.6469 43.3803 39.1617 43.0967C37.242 42.8727 36.7655 42.8734 35.0541 43.0526C32.2865 43.3511 31.4681 43.3209 30.8728 42.9478C28.8192 41.6789 29.1761 38.0365 31.4083 37.6781C32.4202 37.5139 32.4506 37.3946 32.4506 32.7824C32.4357 27.7072 32.242 26.6761 31.1708 25.8551C30.0399 24.9893 27.51 25.4226 26.7509 26.6017C25.739 28.1393 25.5595 29.3488 25.6339 33.872C25.6785 37.3193 25.7831 37.7375 26.497 37.7377C27.3154 37.7377 28.0894 39.291 27.9406 40.5898C27.6577 42.9628 26.7204 43.5001 23.5361 43.1419C21.9289 42.9628 21.4672 42.9633 20.0684 43.1573C18.8929 43.3215 18.2977 43.3357 17.8661 43.2312C15.8423 42.7087 15.5748 38.8281 17.4945 37.8877C18.5211 37.3952 18.461 37.7227 18.461 32.618C18.461 27.8112 18.3421 26.7511 17.7617 26.154C16.467 24.8703 13.789 25.2433 12.6877 26.8852C11.9287 28.0197 11.8687 28.3936 11.8092 32.9765C11.7348 37.2603 11.7352 37.2606 12.0775 37.4995C12.2708 37.6336 12.568 37.7375 12.7316 37.7377C14.2346 37.7377 15.1277 40.171 14.2797 41.9772C13.6844 43.2461 12.9252 43.4553 9.94889 43.1717C8.77335 43.0522 7.76118 42.9324 7.6719 42.9026C7.59323 42.8732 6.4197 42.9632 5.06836 43.1121C2.28561 43.3957 1.58599 43.3059 0.8717 42.5596C-0.408018 41.2311 -0.244826 38.4698 1.13887 37.8127C1.52579 37.6335 1.97265 37.5738 2.88043 37.6186C4.10047 37.6634 4.10045 37.6633 4.27895 37.141C4.51705 36.4394 4.54674 26.8703 4.30863 26.0194C4.08545 25.2433 4.01128 25.1986 2.68692 25.2882C0.797136 25.4225 0.0236413 24.7209 0.00861956 22.8254C-0.006262 20.2876 1.42189 19.3471 4.41308 19.8994C5.61839 20.1382 5.94596 20.1529 6.52625 19.9888C6.89829 19.8992 7.71704 19.7644 8.32718 19.7196C9.91935 19.6002 10.0981 19.7648 10.2172 21.4964C10.2766 22.2263 10.3506 22.8075 10.3953 22.81C10.425 22.81 10.9463 22.3625 11.5266 21.7953C13.1487 20.2727 14.4879 19.5553 16.4522 19.1373ZM56.796 33.7375C56.7812 33.0957 56.6177 33.0354 55.6658 33.3338C55.2938 33.4532 54.2663 33.7517 53.3734 34.0055C50.8584 34.737 50.0697 35.4394 50.4268 36.6635C50.7692 37.8277 51.7222 38.2906 53.3888 38.1413C55.6654 37.9173 56.8704 36.3795 56.796 33.7375Z" fill="#E3E1D9"></path>
</svg>