<svg xmlns="http://www.w3.org/2000/svg" width="273" height="60" viewBox="0 0 273 60" xmlns:c2pa="http://c2pa.org/manifest"><metadata><c2pa:manifest>AAAWgmp1bWIAAAAeanVtZGMycGEAEQAQgAAAqgA4m3EDYzJwYQAAABZcanVtYgAAAEdqdW1kYzJtYQARABCAAACqADibcQN1cm46YzJwYTowMDFhZThlZi04MmZmLTRhZDktOWQ4MC0yOWJiM2Q5NTU3ZTYAAAADl2p1bWIAAAApanVtZGMyYXMAEQAQgAAAqgA4m3EDYzJwYS5hc3NlcnRpb25zAAAAALxqdW1iAAAARGp1bWRjYm9yABEAEIAAAKoAOJtxE2MycGEuaW5ncmVkaWVudC52MwAAAAAYYzJzaJkx8OYjT9w1YNAqr1zbzLYAAABwY2JvcqNpZGM6Zm9ybWF0bWltYWdlL3N2Zyt4bWxqaW5zdGFuY2VJRHgseG1wOmlpZDpiMTNjYWNmNS1mY2FjLTQxNWMtOTgzYS0xOTAzNzg2ZWJiOWFscmVsYXRpb25zaGlwaHBhcmVudE9mAAAB4mp1bWIAAABBanVtZGNib3IAEQAQgAAAqgA4m3ETYzJwYS5hY3Rpb25zLnYyAAAAABhjMnNoMfsdN04Ni698o4D0KbynVAAAAZljYm9yomdhY3Rpb25zgqJmYWN0aW9ua2MycGEub3BlbmVkanBhcmFtZXRlcnOha2luZ3JlZGllbnRzgaJjdXJseC1zZWxmI2p1bWJmPWMycGEuYXNzZXJ0aW9ucy9jMnBhLmluZ3JlZGllbnQudjNkaGFzaFggT1uozdUXKkAyFss8hQBgAlsfT2B6xgDJCKgz2f4HaPmkZmFjdGlvbngdY29tLmFudGhyb3BpYy5jbGF1ZGUucHJvdmlkZWRqcGFyYW1ldGVyc6F4H2NvbS5hbnRocm9waWMub3JpZ2luLWNvbmZpZGVuY2VndW5rbm93bmtkZXNjcmlwdGlvbnhmQ2xhdWRlIHByb3ZpZGVkIHRoaXMgZmlsZSBhdCB0aGUgcmVxdWVzdCBvZiBhIHVzZXIgYW5kIG1heSBoYXZlIGNyZWF0ZWQgb3IgbW9kaWZpZWQgdGhlIGZpbGUgY29udGVudHMubXNvZnR3YXJlQWdlbnShZG5hbWVmQ2xhdWRlcmFsbEFjdGlvbnNJbmNsdWRlZPUAAADIanVtYgAAAEBqdW1kY2JvcgARABCAAACqADibcRNjMnBhLmhhc2guZGF0YQAAAAAYYzJzaKPXY1ou8q6zKtrWcoiN0b0AAACAY2JvcqVjYWxnZnNoYTI1NmNwYWRNAAAAAAAAAAAAAAAAAGRoYXNoWCBp2O8FKwwMcJQTt94ekk/cH0i8JFkYGijUtggEaNvMFmRuYW1lbmp1bWJmIG1hbmlmZXN0amV4Y2x1c2lvbnOBomVzdGFydBiUZmxlbmd0aBkeBAAAAj5qdW1iAAAAJ2p1bWRjMmNsABEAEIAAAKoAOJtxA2MycGEuY2xhaW0udjIAAAACD2Nib3KlY2FsZ2ZzaGEyNTZpc2lnbmF0dXJleE1zZWxmI2p1bWJmPS9jMnBhL3VybjpjMnBhOjAwMWFlOGVmLTgyZmYtNGFkOS05ZDgwLTI5YmIzZDk1NTdlNi9jMnBhLnNpZ25hdHVyZWppbnN0YW5jZUlEeCx4bXA6aWlkOjk4MzQzZjYwLWRkNjEtNGY4My1iNjM5LTE2NDZmZWVjN2E5MXJjcmVhdGVkX2Fzc2VydGlvbnODomN1cmx4LXNlbGYjanVtYmY9YzJwYS5hc3NlcnRpb25zL2MycGEuaW5ncmVkaWVudC52M2RoYXNoWCBPW6jN1RcqQDIWyzyFAGACWx9PYHrGAMkIqDPZ/gdo+aJjdXJseCpzZWxmI2p1bWJmPWMycGEuYXNzZXJ0aW9ucy9jMnBhLmFjdGlvbnMudjJkaGFzaFggGwPeBBmp3tvGp3dkRDjlEnpKk6V8gqP9Rx3XwHl8bsWiY3VybHgpc2VsZiNqdW1iZj1jMnBhLmFzc2VydGlvbnMvYzJwYS5oYXNoLmRhdGFkaGFzaFggL0kGQyg9bqz1zuINT+wsu3U+tlVPfy9NJu67fj+qAjZ0Y2xhaW1fZ2VuZXJhdG9yX2luZm+jZG5hbWVvQW50aHJvcGljIEZpbGVzZ3ZlcnNpb25lMS4wLjBrc3BlY1ZlcnNpb25lMi40LjAAABA4anVtYgAAAChqdW1kYzJjcwARABCAAACqADibcQNjMnBhLnNpZ25hdHVyZQAAABAIY2JvctKEWQISogEmGCFZAgowggIGMIIBjaADAgECAhRA5aAK7sI50L64g/oGQgU9Z1UTADAKBggqhkjOPQQDAzBJMRcwFQYDVQQKEw5BbnRocm9waWMsIFBCQzEuMCwGA1UEAxMlQW50aHJvcGljIENvbnRlbnQgQ3JlZGVudGlhbHMgUm9vdCBDQTAeFw0yNjA4MDcxODQzNTZaFw0yODA4MDYxOTQzNTZaMEQxFzAVBgNVBAoTDkFudGhyb3BpYywgUEJDMSkwJwYDVQQDEyBBbnRocm9waWMgQ2xhdWRlIENvbnRlbnQgU2lnbmluZzBZMBMGByqGSM49AgEGCCqGSM49AwEHA0IABJh6CmvLUBgFFNU0vUKlOVtE6djd17L5SuwX0LemFisBM3dkd/3cyjxFA3Qo5S46fX0/ihY0VZ7mfb9KF703t5OjWDBWMA4GA1UdDwEB/wQEAwIHgDAVBgNVHSUEDjAMBgorBgEEAYPoXgIBMAwGA1UdEwEB/wQCMAAwHwYDVR0jBBgwFoAUzlHiBIFOZFsj+OPEz5o+nMHXXMIwCgYIKoZIzj0EAwMDZwAwZAIwMXMdFJ4BetLLVY7ORuE9noqbbAZOZn/aArXyTwFAZfKrPzxF2vPoJNf1+UCdg1XGAjBwX1zd9WGqYkqmL5SFqw1QySjr1zJfpJM9+1rdDwSPLMOPOjKuiXjoU/pUUeG9RwmhY3BhZFkNngAAAAAAAAAAAAAAAAAAAAAAAAAAAAAAAAAAAAAAAAAAAAAAAAAAAAAAAAAAAAAAAAAAAAAAAAAAAAAAAAAAAAAAAAAAAAAAAAAAAAAAAAAAAAAAAAAAAAAAAAAAAAAAAAAAAAAAAAAAAAAAAAAAAAAAAAAAAAAAAAAAAAAAAAAAAAAAAAAAAAAAAAAAAAAAAAAAAAAAAAAAAAAAAAAAAAAAAAAAAAAAAAAAAAAAAAAAAAAAAAAAAAAAAAAAAAAAAAAAAAAAAAAAAAAAAAAAAAAAAAAAAAAAAAAAAAAAAAAAAAAAAAAAAAAAAAAAAAAAAAAAAAAAAAAAAAAAAAAAAAAAAAAAAAAAAAAAAAAAAAAAAAAAAAAAAAAAAAAAAAAAAAAAAAAAAAAAAAAAAAAAAAAAAAAAAAAAAAAAAAAAAAAAAAAAAAAAAAAAAAAAAAAAAAAAAAAAAAAAAAAAAAAAAAAAAAAAAAAAAAAAAAAAAAAAAAAAAAAAAAAAAAAAAAAAAAAAAAAAAAAAAAAAAAAAAAAAAAAAAAAAAAAAAAAAAAAAAAAAAAAAAAAAAAAAAAAAAAAAAAAAAAAAAAAAAAAAAAAAAAAAAAAAAAAAAAAAAAAAAAAAAAAAAAAAAAAAAAAAAAAAAAAAAAAAAAAAAAAAAAAAAAAAAAAAAAAAAAAAAAAAAAAAAAAAAAAAAAAAAAAAAAAAAAAAAAAAAAAAAAAAAAAAAAAAAAAAAAAAAAAAAAAAAAAAAAAAAAAAAAAAAAAAAAAAAAAAAAAAAAAAAAAAAAAAAAAAAAAAAAAAAAAAAAAAAAAAAAAAAAAAAAAAAAAAAAAAAAAAAAAAAAAAAAAAAAAAAAAAAAAAAAAAAAAAAAAAAAAAAAAAAAAAAAAAAAAAAAAAAAAAAAAAAAAAAAAAAAAAAAAAAAAAAAAAAAAAAAAAAAAAAAAAAAAAAAAAAAAAAAAAAAAAAAAAAAAAAAAAAAAAAAAAAAAAAAAAAAAAAAAAAAAAAAAAAAAAAAAAAAAAAAAAAAAAAAAAAAAAAAAAAAAAAAAAAAAAAAAAAAAAAAAAAAAAAAAAAAAAAAAAAAAAAAAAAAAAAAAAAAAAAAAAAAAAAAAAAAAAAAAAAAAAAAAAAAAAAAAAAAAAAAAAAAAAAAAAAAAAAAAAAAAAAAAAAAAAAAAAAAAAAAAAAAAAAAAAAAAAAAAAAAAAAAAAAAAAAAAAAAAAAAAAAAAAAAAAAAAAAAAAAAAAAAAAAAAAAAAAAAAAAAAAAAAAAAAAAAAAAAAAAAAAAAAAAAAAAAAAAAAAAAAAAAAAAAAAAAAAAAAAAAAAAAAAAAAAAAAAAAAAAAAAAAAAAAAAAAAAAAAAAAAAAAAAAAAAAAAAAAAAAAAAAAAAAAAAAAAAAAAAAAAAAAAAAAAAAAAAAAAAAAAAAAAAAAAAAAAAAAAAAAAAAAAAAAAAAAAAAAAAAAAAAAAAAAAAAAAAAAAAAAAAAAAAAAAAAAAAAAAAAAAAAAAAAAAAAAAAAAAAAAAAAAAAAAAAAAAAAAAAAAAAAAAAAAAAAAAAAAAAAAAAAAAAAAAAAAAAAAAAAAAAAAAAAAAAAAAAAAAAAAAAAAAAAAAAAAAAAAAAAAAAAAAAAAAAAAAAAAAAAAAAAAAAAAAAAAAAAAAAAAAAAAAAAAAAAAAAAAAAAAAAAAAAAAAAAAAAAAAAAAAAAAAAAAAAAAAAAAAAAAAAAAAAAAAAAAAAAAAAAAAAAAAAAAAAAAAAAAAAAAAAAAAAAAAAAAAAAAAAAAAAAAAAAAAAAAAAAAAAAAAAAAAAAAAAAAAAAAAAAAAAAAAAAAAAAAAAAAAAAAAAAAAAAAAAAAAAAAAAAAAAAAAAAAAAAAAAAAAAAAAAAAAAAAAAAAAAAAAAAAAAAAAAAAAAAAAAAAAAAAAAAAAAAAAAAAAAAAAAAAAAAAAAAAAAAAAAAAAAAAAAAAAAAAAAAAAAAAAAAAAAAAAAAAAAAAAAAAAAAAAAAAAAAAAAAAAAAAAAAAAAAAAAAAAAAAAAAAAAAAAAAAAAAAAAAAAAAAAAAAAAAAAAAAAAAAAAAAAAAAAAAAAAAAAAAAAAAAAAAAAAAAAAAAAAAAAAAAAAAAAAAAAAAAAAAAAAAAAAAAAAAAAAAAAAAAAAAAAAAAAAAAAAAAAAAAAAAAAAAAAAAAAAAAAAAAAAAAAAAAAAAAAAAAAAAAAAAAAAAAAAAAAAAAAAAAAAAAAAAAAAAAAAAAAAAAAAAAAAAAAAAAAAAAAAAAAAAAAAAAAAAAAAAAAAAAAAAAAAAAAAAAAAAAAAAAAAAAAAAAAAAAAAAAAAAAAAAAAAAAAAAAAAAAAAAAAAAAAAAAAAAAAAAAAAAAAAAAAAAAAAAAAAAAAAAAAAAAAAAAAAAAAAAAAAAAAAAAAAAAAAAAAAAAAAAAAAAAAAAAAAAAAAAAAAAAAAAAAAAAAAAAAAAAAAAAAAAAAAAAAAAAAAAAAAAAAAAAAAAAAAAAAAAAAAAAAAAAAAAAAAAAAAAAAAAAAAAAAAAAAAAAAAAAAAAAAAAAAAAAAAAAAAAAAAAAAAAAAAAAAAAAAAAAAAAAAAAAAAAAAAAAAAAAAAAAAAAAAAAAAAAAAAAAAAAAAAAAAAAAAAAAAAAAAAAAAAAAAAAAAAAAAAAAAAAAAAAAAAAAAAAAAAAAAAAAAAAAAAAAAAAAAAAAAAAAAAAAAAAAAAAAAAAAAAAAAAAAAAAAAAAAAAAAAAAAAAAAAAAAAAAAAAAAAAAAAAAAAAAAAAAAAAAAAAAAAAAAAAAAAAAAAAAAAAAAAAAAAAAAAAAAAAAAAAAAAAAAAAAAAAAAAAAAAAAAAAAAAAAAAAAAAAAAAAAAAAAAAAAAAAAAAAAAAAAAAAAAAAAAAAAAAAAAAAAAAAAAAAAAAAAAAAAAAAAAAAAAAAAAAAAAAAAAAAAAAAAAAAAAAAAAAAAAAAAAAAAAAAAAAAAAAAAAAAAAAAAAAAAAAAAAAAAAAAAAAAAAAAAAAAAAAAAAAAAAAAAAAAAAAAAAAAAAAAAAAAAAAAAAAAAAAAAAAAAAAAAAAAAAAAAAAAAAAAAAAAAAAAAAAAAAAAAAAAAAAAAAAAAAAAAAAAAAAAAAAAAAAAAAAAAAAAAAAAAAAAAAAAAAAAAAAAAAAAAAAAAAAAAAAAAAAAAAAAAAAAAAAAAAAAAAAAAAAAAAAAAAAAAAAAAAAAAAAAAAAAAAAAAAAAAAAAAAAAAAAAAAAAAAAAAAAAAAAAAAAAAAAAAAAAAAAAAAAAAAAAAAAAAAAAAAAAAAAAAAAAAAAAAAAAAAAAAAAAAAAAAAAAAAAAAAAAAAAAAAAAAAAAAAAAAAAAAAAAAAAAAAAAAAAAAAAAAAAAAAAAAAAAAAAAAAAAAAAAAAAAAAAAAAAAAAAAAAAAAAAAAAAAAAAAAAAAAAAAAAAAAAAAAAAAAAAAAAAAAAAAAAAAAAAAAAAAAAAAAAAAAAAAAAAAAAAAAAAAAAAAAAAAAAAAAAAAAAAAAAAAAAAAAAAAAAAAAAAAAAAAAAAAAAAAAAAAAAAAAAAAAAAAAAAAAAAAAAAAAAAAAAAAAAAAAAAAAAAAAAAAAAAAAAAAAAAAAAAAAAAAAAAAAAAAAAAAAAAAAAAAAAAAAAAAAAAAAAAAAAAAAAAAAAAAAAAAAAAAAAAAAAAAAAAAAAAAAAAAAAAAAAAAAAAAAAAAAAAAAAAAAAAAAAAAAAAAAAAAAAAAAAAAAAAAAAAAAAAAAAAAAAAAAAAAAAAAAAAAAAAAAAAAAAAAAAAAAAAAAAAAAAAAAAAAAAAAAAAAAAAAAAAAAAAAAAAAAAAAAAAAAAAAAAAAAAAAAAAAAAAAAAAAAAAAAAAAAAAAAAAAAAAAAAAAAAAAAAAAAAAAAAAAAAAAAAAAAAAAAAAAAAAAAAAAAAAAAAAAAAAAAAAAAAAAAAAAAAAAAAAAAAAAAAAAAAAAAAAAAAAAAAAAAAAAAAAAAAAAAAAAAAAAAAAAAAAAAAAAAAAAAAAAAAAAAAAAAAAAAAAAAAAAAAAAAAAAAAAAAAAAAAAAAAAAAAAAAAAAAAAAAAAAAAAAAAAAAAAAAAAAAAAAAAAAAAAAAAAAAAAAAAAAAAAAAAAAAAAAAAAAAAAAAAAAAAAAAAAAAAAAAAAAAAAAAAAAAAAAAAAAAAAAAAAAAAAAAAAAAAAAAAAAAAAAAAAAAAAAAAAAAAAAAAAAAAAAAAAAAAAAAAAAAAAAAAAAAAAAAAAAAAAAAAAAAAAAAAAAAAAAAAAAAAAAAAAAAAAAAAAAAAAAAAAAAAAAAAAAAAAAAAAAAAAAAAAAAAAAAAAAAAAAAAAAAAAAAAAAAAAAAAAAAAAAAAAAAAAAAAAAAAAAAAAAAAAAAAAAAAAAAAAAAAAAAAAAAAAAAAAAAAAAAAAAAAAAAAAAAAAAAAAAAAAAAAAAAAAAAAAAAAAAAAAAAAAAAAAAAAAAAAAAAAAAAAAAAAAAAAAAAAAAAAAAAAAAAAAAAAAAAAAAAAAAAAAAAAAAAAAAAAAAAAAAAAAAAAAAAAAAAAAAAAAAAAAAAAAAAAAAAAAAAAAAAAAAAAAAAAAAAAAAAAAAAAAAAAAAAAAAAAAAAAAAAPZYQC7NO27taytill/igf9REQOe16DVuLFlBJEVgu3n4ITAlWkzw0U0PMjFvag9btzKvDcziv/JXwJuae6ljVmTfDI=</c2pa:manifest></metadata><title>Raben logo</title><g fill="#DF0020" fill-rule="nonzero"><path d="M54.3419675 56.0508151c-.3368304-.7894481-.4491072-2.3683443-.4491072-4.3983537v-4.6239103c0-4.3983537-.5613839-7.5561461-1.571875-9.8117121-1.0104912-2.1427877-3.817411-4.1727971-8.3084827-5.9772499 2.9191966-.7894481 5.2770093-2.255566 7.1857147-4.7366886 1.7964287-2.4811226 2.694643-5.638915 2.694643-9.6989338 0-5.1878018-1.4595983-9.13504231-4.3787949-11.7289432C45.5843777 1.6916745 38.5109398 0 28.5183053 0H0v58.9830508h19.1993315V38.4574003h2.9191966c2.2455358 0 4.1542413.1127783 5.5015628.2255566h.2245536c1.4595983.1127783 2.8069198.3383349 3.9296877.6766698 2.2455359.7894481 3.3683038 3.9472405 3.7051342 9.3605989.2245536 5.5261367.561384 8.9094856 1.0104911 10.2628252h19.5361619v-1.6916745c-.8982143.1127783-1.4595983-.4511132-1.6841519-1.2405612M34.4689753 23.683443c-1.3473215 1.2405613-3.5928574 1.8044528-6.8488844 1.8044528H19.1993315V13.7589526h9.3189738c2.133259 0 3.9296877.4511132 5.389286 1.5788962 1.3473215 1.0150047 2.1332591 2.4811226 2.1332591 4.3983537-.1122768 1.6916745-.561384 3.0450141-1.5718751 3.9472405M107.982221 55.6697649c-.225856-.5551583-.225856-1.7765067-.225856-3.6640451V31.2427977c0-5.5515835-1.242208-9.5487236-3.726624-11.8803886-3.049056-2.7757918-8.5825285-4.1081718-16.713345-4.1081718h-3.0490562c-7.6791045.333095-13.2125769 1.7765067-16.8262731 4.3302351-3.0490562 2.2206334-4.7429763 5.5515835-4.7429763 9.7707869h16.4874891c.112928-1.5544434.790496-2.6647601 1.8068481-3.2199184.790496-.4441267 1.8068481-.7772217 3.2749122-.7772217.338784-.1110317.677568-.1110317 1.016352-.1110317 1.8068481 0 3.1619842.333095 4.0654083.999285.903424.6661901 1.3551361 1.5544434 1.3551361 2.4426968 0 1.33238-.5646401 2.2206334-1.5809921 2.66476-.6775681.2220634-2.2585602.5551584-4.8559043.9992851-2.0327042.333095-4.7429763.66619-8.0178885 1.2213483-6.0981124.8882534-10.3893767 2.5537284-12.9867208 4.8853935-2.1456322 2.1096017-3.1619842 4.9964251-3.1619842 8.5494385 0 4.5522984 1.6939201 8.1053119 5.1946883 10.4369769C67.8927788 59.1117466 71.167691 60 74.8943152 60c3.3878402 0 6.4368964-.4441267 9.1471686-1.33238l.112928-.1110317c2.7102721-.8882534 5.1946883-2.4426967 7.4532484-4.5522984l.7904961 4.5522984h17.6167687v-.7772217c-1.12928-.7772217-1.806848-1.5544434-2.032704-2.1096017m-17.5038408-14.101022c0 2.6647601-.6775681 4.7743618-2.0327042 6.4398368-1.12928 1.3323801-2.5973441 2.2206334-4.4041922 2.4426967-.4517121.1110317-.9034241.1110317-1.3551361.1110317-1.4680641 0-2.7102722-.333095-3.7266243-.8882533-1.016352-.6661901-1.468064-1.5544434-1.468064-2.6647601 0-2.2206334 1.580992-3.6640451 4.6300482-4.6633301.5646401-.1110317 1.1292801-.333095 1.8068482-.5551584 1.580992-.4441266 3.7266242-.999285 6.4368964-1.7765067v1.5544434h.112928zM159.174155 20.2990654c-3.483657-3.7009346-7.753946-5.4953271-12.586115-5.4953271-2.135144 0-3.93316.2242991-5.618801.6728972-.449504.1121495-.899008.3364486-1.348512.4485981-1.798016.7850468-3.708409 2.2429907-5.506425 4.3738318V0h-16.96878v58.7663551h15.170763v-6.0560747h.337129c1.348512 2.4672897 3.034152 4.3738317 5.281673 5.6074766 1.011384.5607477 2.022768.8971963 3.034152 1.1214953C142.430128 59.7757009 143.891016 60 145.576656 60c5.394049 0 9.88909-1.5700935 13.147995-4.5981308 4.157913-3.9252337 6.293057-10.093458 6.293057-18.6168225.112376-6.8411215-1.798016-12.3364486-5.843553-16.4859813M146.58804 44.635514c-1.236136 2.0186916-3.146528 3.0280374-5.618801 3.0280374-2.584648 0-4.607417-1.2336449-5.843553-3.7009346-.899008-1.906542-1.348512-3.9252336-1.348512-6.5046729 0-2.6915888.56188-4.8224299 1.573264-6.6168224 1.236136-2.0186916 3.034153-3.0280374 5.506425-3.0280374h.112376c2.472273 0 4.270289 1.1214953 5.506425 3.2523365 1.011385 1.7943925 1.573265 4.0373831 1.573265 6.6168224.224752 2.9158878-.337128 5.1588785-1.460889 6.953271M195.23019 49.7596762h-.666757c-2.000272-.1113079-3.667164-.7791551-5.111805-2.1148495-1.778019-1.5583101-2.667028-3.6731596-2.667028-6.2332406h32.226594c0-6.9010877-1.778019-12.8004047-5.445183-17.4753352-4.333921-5.6767012-10.668114-8.5707057-19.113704-8.6820136h-.444505c-7.667707 0-13.668521 2.3374652-18.002442 7.0123956-3.889417 4.229699-5.889688 9.4611688-5.889688 15.5831015 0 6.678472 2.222523 12.1325575 6.556445 16.1396408C181.006038 57.9964584 186.895726 60 194.230054 60h.333379c6.889823 0 12.335007-1.5583101 16.557802-4.5636226 3.444912-2.448773 5.556309-5.6767012 6.556445-9.5724766h-16.113297c-1.222388 2.6713889-3.333786 3.8957754-6.334193 3.8957754m-.666757-24.376423h.222252c2.000272 0 3.667164.7791551 5.222931 2.0035416 1.555767 1.3356944 2.33365 3.1166203 2.33365 5.2314698H186.895726c0-4.7862383 2.444776-7.1237035 7.667707-7.2350114M226.141791 16.2607829h15.54431v6.8221422c2.027518-2.9077983 4.280317-4.9208895 6.645755-6.0392734 2.478079-1.2302224 5.068797-1.7894144 7.997435-1.7894144 4.956157 0 8.785914 1.2302224 11.601912 3.9143439C271.197761 22.188218 273 26.9972691 273 33.3720577v25.6109931h-17.121269V36.2798561c0-2.6841216-.450559-4.5853743-1.351679-5.8155967-1.013759-1.3420608-2.478078-1.9012528-4.618237-1.9012528-2.252798 0-3.829757.4473536-4.843516 1.5657376-1.1264 1.3420608-1.802239 3.6906671-1.802239 7.0458191v21.8084875h-17.008629V16.2607829h-.11264z"></path></g></svg>